<?xml version="1.0" encoding="utf-8"?>
<!-- Generator: Adobe Illustrator 25.4.1, SVG Export Plug-In . SVG Version: 6.00 Build 0)  -->
<svg version="1.1" id="Layer_1" xmlns="http://www.w3.org/2000/svg" xmlns:xlink="http://www.w3.org/1999/xlink" x="0px" y="0px"
	 viewBox="0 0 3300 2200" style="enable-background:new 0 0 3300 2200;" xml:space="preserve">
<style type="text/css">
	.st0{fill:#FFFFFF;}
	.st1{fill:none;stroke:#000000;stroke-width:0.5;}
	.st2{font-family:'Arial-BoldMT';}
	.st3{font-size:12px;}
	.st4{font-family:'ArialMT';}
	.st5{opacity:0.4;fill:#00AEEF;enable-background:new    ;}
	.st6{fill:#27AAE1;}
	.st7{fill:none;stroke:#27AAE1;stroke-width:0.577;}
</style>
<g id="Notes">
	<rect id="artboard" class="st0" width="3300" height="2200"/>
	<line class="st1" x1="263" y1="292" x2="3036" y2="292"/>
	<text transform="matrix(1 0 0 1 263 322)" class="st2 st3">Weight/Scale Variations</text>
	<text transform="matrix(1 0 0 1 536.0362 322)" class="st4 st3">Ultralight</text>
	<text transform="matrix(1 0 0 1 844.7501 322)" class="st4 st3">Thin</text>
	<text transform="matrix(1 0 0 1 1140.1193 322)" class="st4 st3">Light</text>
	<text transform="matrix(1 0 0 1 1428.8282 322)" class="st4 st3">Regular</text>
	<text transform="matrix(1 0 0 1 1725.2202 322)" class="st4 st3">Medium</text>
	<text transform="matrix(1 0 0 1 2018.2563 322)" class="st4 st3">Semibold</text>
	<text transform="matrix(1 0 0 1 2327.9712 322)" class="st4 st3">Bold</text>
	<text transform="matrix(1 0 0 1 2619.6831 322)" class="st4 st3">Heavy</text>
	<text transform="matrix(1 0 0 1 2918.728 322)" class="st4 st3">Black</text>
	<line class="st1" x1="263" y1="1903" x2="3036" y2="1903"/>
	<g transform="matrix(1 0 0 1 263 1933)">
		<path d="M9.2,0.8c4.3,0,7.9-3.6,7.9-7.9S13.5-15,9.2-15s-7.9,3.6-7.9,7.9C1.4-2.7,5,0.8,9.2,0.8z M9.2-0.7c-3.5,0-6.4-2.8-6.4-6.4
			s2.8-6.4,6.4-6.4s6.4,2.8,6.4,6.4C15.7-3.5,12.8-0.7,9.2-0.7z M9.2-3.4c0.5,0,0.7-0.3,0.7-0.8v-2.1h2.2C12.7-6.3,13-6.6,13-7
			c0-0.5-0.3-0.7-0.8-0.7H10V-10c0-0.5-0.3-0.8-0.7-0.8S8.5-10.5,8.5-10v2.2H6.3C5.8-7.8,5.4-7.5,5.4-7s0.4,0.7,0.8,0.7h2.2v2.1
			C8.5-3.8,8.8-3.4,9.2-3.4z"/>
	</g>
	<g transform="matrix(1 0 0 1 281.506 1933)">
		<path d="M11.7,2.9c5.4,0,10-4.5,10-10c0-5.4-4.5-10-10-10c-5.4,0-10,4.5-10,10C1.7-1.6,6.3,2.9,11.7,2.9z M11.7,1.2
			c-4.6,0-8.3-3.7-8.3-8.3s3.7-8.3,8.3-8.3S20-11.7,20-7.1C20-2.4,16.3,1.2,11.7,1.2z M11.7-2.4c0.5,0,0.8-0.4,0.8-0.9v-2.9h3.1
			c0.5,0,0.9-0.3,0.9-0.8s-0.4-0.8-0.9-0.8h-3.1v-3.1c0-0.6-0.3-0.9-0.8-0.9s-0.8,0.4-0.8,0.9v3.1h-3c-0.6-0.1-1,0.2-1,0.8
			c0,0.5,0.4,0.8,0.9,0.8h3v2.9C10.9-2.8,11.2-2.4,11.7-2.4z"/>
	</g>
	<g transform="matrix(1 0 0 1 304.924 1933)">
		<path d="M15,5.7c7,0,12.7-5.8,12.7-12.7c0-7-5.8-12.7-12.7-12.7C8-19.8,2.3-14,2.3-7C2.3-0.1,8,5.7,15,5.7z M15,3.9
			C8.9,3.9,4.1-1,4.1-7S8.9-17.9,15-17.9c6,0,10.9,4.9,10.9,10.9S21,3.9,15,3.9z M15-1.1c0.6,0,0.9-0.4,0.9-1v-4.1h4.2
			c0.6,0,1-0.3,1-0.9S20.7-8,20.1-8h-4.2v-4.2c0-0.6-0.4-1-0.9-1c-0.6,0-0.9,0.4-0.9,1V-8H9.8c-0.6,0-1,0.3-1,0.9s0.4,0.9,1,0.9H14
			v4.1C14.1-1.5,14.4-1.1,15-1.1z"/>
	</g>
	<text transform="matrix(1 0 0 1 263 1953)" class="st2 st3">Design Variations</text>
	<text transform="matrix(1 0 0 1 263 1971)" class="st4 st3">Symbols are supported in up to nine weights and three scales.</text>
	<text transform="matrix(1 0 0 1 263 1989)" class="st4 st3">For optimal layout with text and other symbols, vertically align</text>
	<text transform="matrix(1 0 0 1 263 2007)" class="st4 st3">symbols with the adjacent text.</text>
	<rect x="776" y="1919" class="st5" width="3" height="14"/>
	<g transform="matrix(1 0 0 1 779 1933)">
		<path d="M10.5,0h1.8L7.2-14.1H5.4L0.2,0H2l1.4-4H9L10.5,0z M6.3-12L6.3-12l2.3,6.4H4L6.3-12z"/>
	</g>
	<rect x="791.6" y="1919" class="st5" width="3" height="14"/>
	<text transform="matrix(1 0 0 1 776 1953)" class="st2 st3">Margins</text>
	<text transform="matrix(1 0 0 1 776 1971)" class="st4 st3">Leading and trailing margins on the left and right side of each symbol</text>
	<text transform="matrix(1 0 0 1 776 1989)" class="st4 st3">can be adjusted by modifying the width of the blue rectangles.</text>
	<text transform="matrix(1 0 0 1 776 2007)" class="st4 st3">Modifications are automatically applied proportionally to all</text>
	<text transform="matrix(1 0 0 1 776 2025)" class="st4 st3">scales and weights.</text>
	<g transform="matrix(1 0 0 1 1289 1933)">
		<path d="M2.8,3.1l1.5,1.5C5.1,5.4,6.1,5.4,7,4.4L17.3-6.7c0.4,0.3,0.8,0.3,1.3,0.2l1-0.2L20.3-6v0.5c-0.1,0.5,0.1,1,0.5,1.5
			l0.8,0.8c0.5,0.5,1.2,0.5,1.6,0.1l3.3-3.3C27-6.9,27-7.5,26.5-8l-0.8-0.8c-0.5-0.5-0.9-0.7-1.4-0.6l-0.5,0.1L23.1-10l0.3-1.1
			c0.1-0.6,0-1-0.6-1.6l-2.4-2.4c-3.5-3.5-8.1-3.4-11.2-0.3C8.8-15,8.7-14.4,9-14c0.2,0.4,0.7,0.6,1.4,0.4c1.5-0.4,3-0.3,4.5,0.7
			l-0.6,1.6c-0.2,0.6-0.2,1.1,0,1.5L3,0.4C2.1,1.3,2,2.3,2.8,3.1z M10.7-15.1c2.7-2,6-1.7,8.4,0.7l2.6,2.6c0.2,0.2,0.3,0.4,0.2,0.7
			l-0.4,1.6L23.1-8H24c0.3,0,0.4,0,0.6,0.2l0.6,0.6l-2.8,2.7l-0.6-0.6c-0.2-0.2-0.2-0.3-0.2-0.6l0.1-1l-1.6-1.6L18.5-8
			c-0.3,0.1-0.4,0.1-0.7-0.2l-2.2-2.2c-0.2-0.2-0.3-0.4-0.1-0.7l0.9-2.3c-1.6-1.5-3.7-2.4-5.8-1.7c-0.1,0-0.2,0-0.2,0
			C10.6-15,10.6-15.1,10.7-15.1z M4.1,2.4c-0.5-0.5-0.3-0.8,0-1.1l11-10.1l1.2,1.2L6.2,3.3c-0.3,0.3-0.7,0.4-1.1,0L4.1,2.4z"/>
	</g>
	<text transform="matrix(1 0 0 1 1289 1953)" class="st2 st3">Exporting</text>
	<text transform="matrix(1 0 0 1 1289 1971)" class="st4 st3">Symbols should be outlined when exporting to ensure the</text>
	<text transform="matrix(1 0 0 1 1289 1989)" class="st4 st3">design is preserved when submitting to Xcode.</text>
	<text id="template-version" transform="matrix(1 0 0 1 2958.8496 1933)" class="st4 st3">Template v.1.0</text>
	<text transform="matrix(1 0 0 1 2921.2852 1951)" class="st4 st3">Generated from clock</text>
	<text transform="matrix(1 0 0 1 2921.9238 1969)" class="st4 st3">Typeset at 100 points</text>
	<text transform="matrix(1 0 0 1 263 726)" class="st4 st3">Small</text>
	<text transform="matrix(1 0 0 1 263 1156)" class="st4 st3">Medium</text>
	<text transform="matrix(1 0 0 1 263 1586)" class="st4 st3">Large</text>
</g>
<g id="Guides">
	<g id="H-reference" transform="matrix(1 0 0 1 339 696)">
		<path class="st6" d="M54.9,0h2.7l-27-70.5h-2.5L1,0h2.7L13-24.5h32.8L54.9,0z M29.2-67.1h0.2l15.4,40.4h-31L29.2-67.1z"/>
	</g>
	<line id="Baseline-S" class="st7" x1="263" y1="696" x2="3036" y2="696"/>
	<line id="Capline-S" class="st7" x1="263" y1="625.5" x2="3036" y2="625.5"/>
	<g id="H-reference_00000106852894638546321520000013817813360119079818_" transform="matrix(1 0 0 1 339 1126)">
		<path class="st6" d="M54.9,0h2.7l-27-70.5h-2.5L1,0h2.7L13-24.5h32.8L54.9,0z M29.2-67.1h0.2l15.4,40.4h-31L29.2-67.1z"/>
	</g>
	<line id="Baseline-M" class="st7" x1="263" y1="1126" x2="3036" y2="1126"/>
	<line id="Capline-M" class="st7" x1="263" y1="1055.5" x2="3036" y2="1055.5"/>
	<g id="H-reference_00000165924818140108454140000002211529343670253710_" transform="matrix(1 0 0 1 339 1556)">
		<path class="st6" d="M54.9,0h2.7l-27-70.5h-2.5L1,0h2.7L13-24.5h32.8L54.9,0z M29.2-67.1h0.2l15.4,40.4h-31L29.2-67.1z"/>
	</g>
	<line id="Baseline-L" class="st7" x1="263" y1="1556" x2="3036" y2="1556"/>
	<line id="Capline-L" class="st7" x1="263" y1="1485.5" x2="3036" y2="1485.5"/>
	<rect id="left-margin" x="1391.3" y="1030.8" class="st5" width="8.7" height="119.3"/>
	<rect id="right-margin" x="1499.7" y="1030.8" class="st5" width="8.7" height="119.3"/>
</g>
<g id="Symbols">
	<g id="Black-L" transform="matrix(1 0 0 1 2854.05 1556)">
		<path d="M79.2-103.3c-11,0-21.3,2.6-30.5,7.2c-7.4,3.7-14,8.7-19.6,14.7C21.3-73,15.8-62.6,12.9-51c-1.2,5.1-1.8,10.3-1.8,15.8
			c0,20.9,9.4,39.6,24.2,52c6.3,5.3,13.5,9.5,21.4,12.2c7,2.5,14.6,3.8,22.5,3.8c37.6,0,68.1-30.5,68.1-68.1
			C147.3-72.8,116.8-103.3,79.2-103.3z M137.6-35.2c0,4.1-0.4,8.2-1.3,12.1c-3.3-2.1-6.5-4-9.5-5.7c-0.2-0.1-0.3-0.2-0.5-0.3
			c-8.9-4.8-16.6-7.5-23.3-9.1c-0.2-0.1-0.4-0.1-0.6-0.1c-8.3-1.9-15.1-2-21-2c-3.4-3.3-7.1-7-10.8-12c15.7-6.3,43.1-6.2,66.8,11.7
			C137.4-38.9,137.6-37.1,137.6-35.2z M60.1,19.8c-4.4-1.5-8.5-3.6-12.4-6.1c3.4-2.5,6.5-5,9.3-7.5c0.2-0.2,0.4-0.3,0.6-0.5
			C65-0.9,70.2-7.1,73.9-12.8c0.1-0.2,0.3-0.4,0.4-0.6c4.1-6.3,6.5-12.1,8.4-17.2c4.1,0,8.6,0.2,13.7,1c-1.6,13.5-11,37.5-34.6,49.9
			C61.1,20.2,60.6,20,60.1,19.8z M123.3-73.2c4.7,5.5,8.5,11.9,10.9,18.8c-12.3-7.1-24.1-9.9-32.9-11c-13.2-1.6-26,0.1-36.1,4.5
			c-1.8-3.5-3.6-7.5-5.2-12.1C76.6-81.1,100.8-83.8,123.3-73.2z M100.4-89.5c-16-1.6-31.3,1.5-43.2,7.1c-0.5-1.9-1-4-1.5-6.1
			c7.4-3.3,15.3-4.9,23.5-4.9C86.8-93.5,93.9-92,100.4-89.5z M46.8-83.6c0.8,3.4,1.7,6.7,2.6,9.7c0,0.1,0.1,0.3,0.1,0.4
			c2.8,8.9,6,15.8,9.4,21.5c0,0.1,0,0.1,0.1,0.2s0.1,0.2,0.2,0.3c4.8,7.8,9.8,13.1,14.3,17.4c-1.4,3.7-3,7.6-5.4,11.9
			C53.3-30.9,38.9-49.3,36-74.1c0.2-0.2,0.3-0.4,0.5-0.5C39.6-78.1,43.1-81.1,46.8-83.6z M28.1-62.9C33.8-39,48.7-22.5,62.9-14.1
			c-2.5,3.2-5.4,6.6-9.1,10.1c-12.9-9.5-24.1-18.9-31.8-40.8c0.2-1.3,0.5-2.7,0.8-4C23.8-53.7,25.6-58.4,28.1-62.9z M22.9-20.4
			c6.8,10.1,14.8,16.8,23.1,23c-2,1.6-4.1,3.2-6.5,4.8C31.4-0.2,25.8-9.8,22.9-20.4z M75.9,23c19.4-14.5,27.9-36.3,30-50.2
			c3.9,1.2,8.2,2.9,12.8,5.3C115.9-5,110.9,8,97.1,20.3c-5.6,1.8-11.6,2.8-17.8,2.8C78.1,23.1,77.1,23,75.9,23z M120.1,6.3
			c3.6-7.2,5.9-14.8,7.6-23.2c1.8,1.1,3.7,2.3,5.6,3.6C130.2-5.9,125.8,0.7,120.1,6.3z"/>
	</g>
	<g id="Heavy-L" transform="matrix(1 0 0 1 2558.39 1556)">
		<path d="M78.3-98.8c-10.2,0-19.9,2.4-28.5,6.7c-6.9,3.5-13.1,8.1-18.3,13.8c-7.3,7.9-12.6,17.6-15.1,28.4
			c-1.1,4.7-1.7,9.7-1.7,14.7c0,19.5,8.8,37,22.6,48.6c5.9,4.9,12.6,8.8,20,11.4c6.6,2.3,13.6,3.5,21,3.5
			c35.1,0,63.6-28.5,63.6-63.6C141.9-70.3,113.4-98.8,78.3-98.8z M132.9-35.2c0,3.9-0.4,7.8-1.2,11.5c-3.2-2-6.2-3.8-9.1-5.4
			c-0.1-0.1-0.3-0.2-0.5-0.3c-8.4-4.5-15.6-7.1-21.9-8.5c-0.2,0-0.3-0.1-0.5-0.1C92-39.8,85.6-39.9,80-39.9
			c-3.2-3.1-6.7-6.6-10.1-11.3c14.7-5.9,40.4-5.8,62.7,11C132.8-38.6,132.9-36.9,132.9-35.2z M60.3,16.4c-4.2-1.5-8.1-3.4-11.8-5.8
			c3.2-2.4,6.2-4.8,9-7.2l0.1-0.1c5.4-4.8,9.9-9.6,13.5-14.6c0.8-1.1,1.5-2.1,2.2-3.2l0,0c3.9-6,6.2-11.4,8-16.4
			c3.9,0,8.1,0.2,12.9,1C92.7-17.2,83.9,5.3,61.7,16.9C61.3,16.7,60.8,16.6,60.3,16.4z M98.9-63.2c-12.3-1.5-24.4,0.1-33.8,4.3
			c-1.7-3.3-3.4-7-4.9-11.4c15.4-7.7,38.2-10.2,59.4-0.3c4.5,5.2,8,11.2,10.2,17.8C118.4-59.6,107.2-62.3,98.9-63.2z M98.9-85.7
			c-15.3-1.7-29.9,1.2-41.3,6.6c-0.5-1.9-1-3.9-1.4-6c6.9-3.1,14.4-4.7,22.1-4.7C85.6-89.8,92.5-88.3,98.9-85.7z M48-80.6
			c0.8,3.3,1.6,6.3,2.5,9.2c0,0.1,0.1,0.3,0.1,0.4c2.6,8.3,5.6,14.8,8.8,20c0,0.1,0,0.1,0.1,0.2s0.1,0.2,0.2,0.2
			c4.5,7.3,9.2,12.2,13.4,16.3c-1.3,3.5-2.9,7.2-5.1,11.2c-14-8.1-27.5-25.4-30.2-48.7c0.1-0.2,0.3-0.3,0.4-0.5
			C41.1-75.4,44.4-78.2,48-80.6z M30.4-61.3c5.2,22.6,19.3,38,32.6,45.9c-2.3,3-5.1,6.2-8.7,9.5c-12.1-8.9-22.7-17.8-29.9-38.3
			c0.2-1.2,0.4-2.4,0.7-3.6C26.3-52.6,28.1-57.1,30.4-61.3z M25.3-22c6.5,9.8,14.1,16.2,22,22.1c-1.9,1.5-4,3.1-6.2,4.7
			C33.3-2.5,27.9-11.8,25.3-22z M74.8,19.3c18.3-13.6,26.4-34.1,28.3-47.1c3.7,1.2,7.7,2.8,12.1,5c-2.7,15.9-7.5,28.1-20.4,39.7
			c-5.2,1.7-10.8,2.6-16.5,2.6C77.1,19.4,76,19.4,74.8,19.3z M116.1,4.2c3.6-6.9,5.8-14.3,7.4-22.4c1.7,1.1,3.6,2.2,5.4,3.5
			C126-7.6,121.6-1.1,116.1,4.2z"/>
	</g>
	<g id="Bold-L" transform="matrix(1 0 0 1 2262.88 1556)">
		<path d="M77.1-98.8c-10.2,0-19.9,2.4-28.5,6.7c-6.9,3.5-13.1,8.1-18.3,13.8C23-70.4,17.7-60.7,15.2-49.9
			c-1.1,4.7-1.7,9.7-1.7,14.7c0,19.5,8.8,37,22.6,48.6c5.9,4.9,12.6,8.8,20,11.4c6.6,2.3,13.6,3.5,21,3.5
			c35.1,0,63.6-28.5,63.6-63.6C140.7-70.3,112.2-98.8,77.1-98.8z M132.7-35.2c0,4.3-0.5,8.5-1.4,12.6c-3.5-2.3-6.9-4.3-10.1-6.1
			c-0.2-0.1-0.4-0.2-0.5-0.3c-8.2-4.4-15.2-6.9-21.4-8.4c-0.3-0.1-0.6-0.2-0.8-0.2c-7.7-1.7-14.1-1.8-19.6-1.8
			c-3.4-3.3-7.1-7-10.7-12.1c14.9-6.3,41.6-6.4,64.5,11.3C132.6-38.5,132.7-36.8,132.7-35.2z M58.7,17.3c-4.5-1.6-8.8-3.7-12.7-6.4
			c3.7-2.7,7-5.3,9.9-7.9c0.1-0.1,0.2-0.1,0.2-0.2c7-6.2,11.9-12,15.4-17.3c0.2-0.2,0.3-0.4,0.4-0.7c3.9-6,6.1-11.4,7.9-16.2
			c4.1,0,8.6,0.1,13.8,1C92.3-17.5,83.3,6,60,17.7C59.6,17.6,59.1,17.5,58.7,17.3z M97.7-62.8c-12.4-1.5-24.6,0.1-33.9,4.4
			c-1.9-3.5-3.7-7.6-5.3-12.3c15.9-8.1,39.6-10.7,61.5,0.1c4.6,5.6,8.2,12.1,10.3,19.2C118.1-58.8,106.3-61.7,97.7-62.8z
			 M102.6-84.5c-17.2-3-33.9,0-46.6,6.1c-0.6-2.3-1.2-4.8-1.8-7.5c7.2-3.2,14.8-4.9,22.8-4.9C86.3-90.8,95-88.5,102.6-84.5z
			 M47-81.9c0.8,3.7,1.8,7.2,2.7,10.4c0,0.2,0.1,0.3,0.1,0.4c2.6,8.2,5.6,14.7,8.7,19.9c0,0.1,0.1,0.1,0.1,0.2
			c0.1,0.1,0.1,0.2,0.2,0.3c4.5,7.4,9.3,12.3,13.5,16.4c-1.4,3.7-3,7.7-5.5,12.1c-14.4-8.2-28.5-26.1-31-50.2
			c0.1-0.1,0.2-0.2,0.3-0.3C39.4-76.3,43-79.4,47-81.9z M29.2-63.4c4.9,23.8,19.6,39.9,33.3,47.8C60-12.3,57-8.9,53.1-5.3
			c-12.5-9.2-23.4-18.2-30.8-40c0.2-1,0.4-1.9,0.6-2.9C24.3-53.5,26.4-58.6,29.2-63.4z M22.2-25.9c7,12.1,15.6,19.3,24.7,26
			c-2.3,1.8-4.8,3.7-7.5,5.6C30.3-2.7,24.3-13.8,22.2-25.9z M71.6,20.2c19.7-13.7,28.1-35.4,29.9-48.6c4,1.2,8.3,2.9,13.1,5.3
			C111.8-6.6,106.9,6.1,93,18.1c-5,1.5-10.4,2.3-15.9,2.3C75.2,20.4,73.4,20.3,71.6,20.2z M112.2,7.9c5-8.2,7.9-17,9.7-26.9
			c2.2,1.3,4.5,2.8,6.8,4.4C125.2-5.8,119.5,2,112.2,7.9z"/>
	</g>
	<g id="Semibold-L" transform="matrix(1 0 0 1 1966.97 1556)">
		<path d="M76.3-100.2c-10.5,0-20.4,2.5-29.1,6.9c-7.1,3.5-13.4,8.3-18.7,14.1c-7.4,8.1-12.8,18-15.5,29c-1.1,4.8-1.8,9.9-1.8,15.1
			c0,19.9,9,37.8,23.1,49.7c6,5.1,12.9,9,20.5,11.7c6.7,2.3,13.9,3.6,21.5,3.6c35.9,0,65-29.1,65-65
			C141.3-71.1,112.2-100.2,76.3-100.2z M134.2-35.2c0,4.8-0.6,9.5-1.7,14c-11-7.4-21.1-12.4-30.9-15.1C92-39,84.4-39.1,77.7-39.1
			C74-42.6,70-46.6,66.1-52.2c15.4-6.8,43.8-7.1,67.8,12C134.1-38.5,134.2-36.9,134.2-35.2z M121.6-71.2c4.9,6.2,8.6,13.3,10.7,21.2
			c-13-8.5-25.8-11.7-35-12.8c-12.8-1.5-25.3,0.2-34.9,4.7c-2.1-3.8-4-8.3-5.9-13.6C73.2-80.5,98.5-83.2,121.6-71.2z M107.3-84.1
			c-19.4-4.7-38.7-1.5-52.8,5.4c-0.8-2.9-1.5-5.9-2.2-9.3c7.5-3.4,15.6-5.2,24-5.2C87.7-93.1,98.3-89.8,107.3-84.1z M45.8-84.5
			c0.9,4.3,2,8.2,3.1,11.8c0,0.2,0.1,0.3,0.2,0.5c2.6,8.4,5.7,14.9,8.8,20.2c0,0.1,0.1,0.2,0.1,0.2c0.1,0.1,0.2,0.2,0.2,0.3
			c4.7,7.6,9.6,12.7,13.9,16.9c-1.5,4.1-3.3,8.4-6,13.2c-15.2-8.4-30.2-27.3-32.5-53l0.1-0.1C37.3-78.4,41.3-81.7,45.8-84.5z
			 M27.5-66.4c4.6,25.6,20.2,42.8,34.7,51C59.5-11.8,56.2-8,51.9-4c-13.3-9.7-24.8-19.1-32.4-42.5c0.1-0.7,0.3-1.5,0.5-2.2
			C21.4-54.9,24-60.9,27.5-66.4z M18.6-29.9C26.2-15,36-6.8,46.3,0.8c-2.7,2.2-5.7,4.5-9,6.8C26.6-2.2,19.9-15.5,18.6-29.9z
			 M43.1,12.2c4.2-3,7.9-6,11.2-8.8c0.1-0.1,0.2-0.1,0.3-0.2c7.1-6.3,12-12.1,15.6-17.6c0.2-0.2,0.4-0.5,0.5-0.8
			c4-6.2,6.3-11.8,8.1-16.8c4.5,0,9.4,0.1,15.1,1.2C92.7-17.5,83.3,7.7,58.3,19.7c-0.3-0.1-0.7-0.2-1-0.3
			C52.1,17.7,47.4,15.3,43.1,12.2z M68.4,22.2c21.7-14,30.7-37.4,32.3-51.2c4.3,1.3,9.1,3.1,14.4,5.9c-2.9,17.7-8.1,31-23.4,43.8
			c-4.9,1.4-10.1,2.1-15.5,2.1C73.6,22.7,71,22.5,68.4,22.2z M109.1,12.5c7-9.7,10.5-20.1,12.6-32.1c2.7,1.6,5.5,3.4,8.5,5.5
			C125.9-3.3,118.5,5.9,109.1,12.5z"/>
	</g>
	<g id="Medium-L" transform="matrix(1 0 0 1 1670.87 1556)">
		<path d="M75.6-99.6c-10.4,0-20.2,2.5-28.9,6.8c-7,3.5-13.2,8.3-18.5,13.9c-7.4,8-12.7,17.8-15.3,28.7c-1.1,4.8-1.7,9.8-1.7,14.9
			c0,19.8,8.9,37.4,22.9,49.2c5.9,5,12.8,9,20.3,11.6c6.7,2.3,13.8,3.6,21.3,3.6c35.6,0,64.4-28.8,64.4-64.4S111.2-99.6,75.6-99.6z
			 M133.3-35.2c0,4.9-0.6,9.7-1.8,14.3c-4.1-2.8-8-5.1-11.7-7.1c-0.1-0.1-0.3-0.2-0.5-0.3c-8.3-4.4-15.4-7-21.7-8.5
			c-0.2-0.1-0.4-0.1-0.6-0.1c-7.9-1.8-14.5-1.9-20.1-1.9l0,0c-3.7-3.6-7.7-7.5-11.6-13.2c15.3-6.8,43.8-7.2,67.8,12
			C133.3-38.4,133.3-36.8,133.3-35.2z M56.6,19.3c-5.1-1.8-9.9-4.3-14.3-7.4c4.3-3.1,8.1-6.1,11.4-9c0.1-0.1,0.2-0.2,0.3-0.2
			c7-6.2,11.8-12,15.4-17.3c0.2-0.2,0.4-0.5,0.5-0.8l0,0c4-6.2,6.2-11.8,8.1-16.7c4.5,0,9.5,0.1,15.2,1.2
			C92-17.7,82.6,7.6,57.5,19.6C57.2,19.5,56.9,19.4,56.6,19.3z M121-70.8c4.9,6.2,8.6,13.5,10.6,21.4c-13-8.7-25.9-11.9-35.2-13
			c-12.7-1.5-25.1,0.2-34.6,4.7c-2.1-3.8-4.1-8.4-5.9-13.8C72.5-80.2,97.9-83,121-70.8z M107.8-83.1C88-88.3,68.2-85.2,53.9-78
			c-0.8-3-1.6-6.2-2.3-9.7c7.5-3.5,15.6-5.2,24-5.2C87.5-92.9,98.6-89.3,107.8-83.1z M45.5-84.4c0.9,4.4,2,8.4,3.1,12.1
			c0,0.2,0.1,0.3,0.2,0.5c2.6,8.3,5.6,14.8,8.7,20c0,0.1,0.1,0.2,0.1,0.2c0.1,0.1,0.2,0.2,0.2,0.3c4.6,7.6,9.6,12.6,13.9,16.7
			c-1.5,4.1-3.3,8.5-6.1,13.3c-15.2-8.4-30.2-27.3-32.5-53c0,0,0-0.1,0.1-0.1C36.8-78.3,41-81.6,45.5-84.4z M27.3-66.8
			c4.4,25.8,20.1,43,34.6,51.2C59.2-11.9,55.8-8.1,51.4-4C38.1-13.7,26.6-23.1,19-46.7c0.1-0.6,0.2-1.3,0.4-1.9
			C21-55.1,23.7-61.2,27.3-66.8z M18.1-31.1C25.8-15.5,35.7-7.3,46.3,0.5c-2.8,2.3-5.9,4.6-9.4,7C25.8-2.5,19.1-16.3,18.1-31.1z
			 M67.2,21.9c22-13.8,31-37.5,32.6-51.2c4.4,1.3,9.2,3.2,14.6,5.9c-2.9,17.7-8.1,31-23.6,43.9c-4.8,1.3-9.9,2-15.1,2
			C72.8,22.5,70,22.3,67.2,21.9z M107.1,13.1c7.5-10,11.2-20.7,13.4-33.1c2.8,1.7,5.8,3.6,8.8,5.7C125-3,117.1,6.6,107.1,13.1z"/>
	</g>
	<g id="Regular-L" transform="matrix(1 0 0 1 1374.97 1556)">
		<path d="M74.8-98.8c-10.2,0-19.9,2.4-28.5,6.7C39.4-88.6,33.2-84,28-78.3c-7.3,7.9-12.6,17.6-15.1,28.4c-1.1,4.7-1.7,9.7-1.7,14.7
			c0,19.5,8.8,37,22.6,48.6c5.9,4.9,12.6,8.8,20,11.4c6.6,2.3,13.6,3.5,21,3.5c35.1,0,63.6-28.5,63.6-63.6
			C138.4-70.3,110-98.8,74.8-98.8z M132.4-35.2c0,5.1-0.7,10.1-1.9,14.8c-26-17.8-41.7-18-54.5-18c-3.8-3.6-7.9-7.7-11.8-13.5
			c15.2-7,44-7.4,68,12.1C132.4-38.3,132.4-36.7,132.4-35.2z M55.8,19.2c-5.3-1.8-10.2-4.4-14.7-7.7C66.4-6.2,72.4-20.6,76.9-32.4
			c4.6,0,9.7,0.1,15.6,1.2C91.4-18,82,7.6,56.5,19.4C56.3,19.4,56.1,19.3,55.8,19.2z M120.5-70.2c4.9,6.4,8.5,13.9,10.4,22
			c-13.2-9.1-26.3-12.4-35.6-13.5c-12.6-1.5-24.9,0.2-34.2,4.7c-2.2-3.9-4.2-8.6-6.1-14.1C71.6-80,97.3-82.8,120.5-70.2z
			 M109.1-81.4c-20.5-6.2-41.2-3-55.9,4.4c-0.9-3.2-1.7-6.7-2.5-10.5c7.6-3.5,15.7-5.3,24.1-5.3C87.7-92.8,99.5-88.5,109.1-81.4z
			 M45.2-84.6c6.3,30,17.1,41.2,26.1,50c-1.6,4.2-3.4,8.7-6.3,13.7c-15.3-8.3-30.5-27.3-32.5-53.3C36.3-78.3,40.5-81.7,45.2-84.6z
			 M27.3-67.6c4,26.2,19.9,43.6,34.5,51.7C59.1-12.1,55.6-8.2,51-4c-13.4-9.8-25-19.1-32.5-43.1c0.1-0.5,0.2-1,0.3-1.5
			C20.4-55.3,23.3-61.8,27.3-67.6z M17.3-33.4C25-16.5,35.4-8,46.4,0.1c-3,2.4-6.3,4.9-10,7.5C24.6-2.9,17.8-17.7,17.3-33.4z
			 M65.2,21.6C87.9,8,96.9-16.2,98.4-29.8c4.5,1.3,9.5,3.2,15,6.1c-2.9,17.9-8.2,31.3-24.1,44.3c-4.6,1.2-9.5,1.9-14.5,1.9
			C71.6,22.4,68.4,22.2,65.2,21.6z M104,14.5c8.6-10.5,12.6-21.8,14.9-35.1c3,1.8,6.2,3.8,9.6,6.2C123.9-2.3,115.1,7.9,104,14.5z"/>
	</g>
	<g id="Light-L" transform="matrix(1 0 0 1 1079.18 1556)">
		<path d="M73.9-97.8c-10.1,0-19.6,2.4-28.1,6.6c-6.8,3.4-12.9,8-18,13.6c-7.2,7.8-12.4,17.3-14.9,27.9c-1.1,4.7-1.7,9.5-1.7,14.5
			c0,19.2,8.6,36.4,22.3,47.9c5.8,4.9,12.4,8.7,19.7,11.3c6.5,2.3,13.4,3.5,20.7,3.5c34.6,0,62.6-28,62.6-62.6S108.5-97.8,73.9-97.8
			z M131.8-35.1c0,5.5-0.8,10.8-2.2,15.9c-26.3-18.4-42-18.5-54.8-18.5c-3.9-3.8-8.2-7.9-12.3-14.1c15.2-7.3,44.7-8,69.1,12.4
			C131.8-38,131.8-36.6,131.8-35.1z M54.8,19.6c-5.6-2-10.9-4.8-15.6-8.3c26-17.9,31.9-32.4,36.4-44.2c4.8,0,10.1,0.1,16.4,1.3
			C91.1-18.5,81.7,8.1,55.2,19.8C55,19.6,54.9,19.6,54.8,19.6z M60.1-55.9c-2.3-4.1-4.5-9-6.5-15c16.9-9.2,43.4-12,67,1.5
			c5,6.8,8.6,14.7,10.2,23.3C107.3-63.3,77.8-64.8,60.1-55.9z M112.3-78.5c-21.8-8.2-44.5-5.1-60.1,3c-1-3.7-2-7.7-2.8-12.2
			c7.7-3.6,15.9-5.5,24.5-5.5C88.6-93.1,102.1-87.6,112.3-78.5z M45-85.4c6.2,30.8,17.1,41.9,26.1,50.6c-1.6,4.4-3.5,9.2-6.7,14.4
			c-15.6-8.2-31.2-27.7-32.9-54.3C35.5-78.9,40-82.5,45-85.4z M27.3-69.6c3.3,27.3,19.8,45.2,34.6,53.2c-2.8,4-6.5,8.2-11.4,12.8
			C36.8-13.6,25-22.9,17.5-48c0-0.2,0.1-0.4,0.1-0.5C19.3-56.1,22.7-63.3,27.3-69.6z M16-35.1c0-0.9,0-1.7,0.1-2.6
			c7.8,19.6,19,28.6,30.8,37.3c-3.3,2.8-7.1,5.6-11.4,8.6C23-2.9,16-18.6,16-35.1z M61.9,21.5C86.1,8.3,95.4-17.1,96.6-30.7
			c4.8,1.3,10,3.3,16,6.4c-3,18.5-8.3,32.1-25.2,45.4c-4.3,1-8.8,1.6-13.5,1.6C69.8,22.8,65.8,22.4,61.9,21.5z M98.8,17.2
			c11-11.5,15.5-24,18.1-38.9c3.5,2,7.2,4.4,11.1,7.2C122.7-0.6,112.2,10.7,98.8,17.2z"/>
	</g>
	<g id="Thin-L" transform="matrix(1 0 0 1 783.693 1556)">
		<path d="M72.7-96.5c-9.9,0-19.2,2.3-27.5,6.5c-6.7,3.3-12.6,7.9-17.6,13.3c-7,7.6-12.1,17-14.6,27.4c-1.1,4.6-1.7,9.3-1.7,14.2
			c0,18.8,8.5,35.7,21.8,47c5.7,4.8,12.2,8.5,19.3,11c6.3,2.2,13.2,3.4,20.3,3.4c33.9,0,61.4-27.5,61.4-61.4
			C134.1-69,106.6-96.5,72.7-96.5z M120.7-68.3c5.1,7.3,8.5,15.8,9.8,25.1c-23.4-18.7-54-20.4-71.7-11.1c-2.5-4.3-4.9-9.6-7-16.2
			C69-80.1,96.6-83.1,120.7-68.3L120.7-68.3z M116-74.3c-23.3-11.3-48.6-8.1-65.1,0.8c-1.2-4.2-2.4-9-3.3-14.4
			c7.9-3.8,16.3-5.7,25.1-5.7C89.8-93.5,105.3-86.1,116-74.3z M44.8-86.4c6,31.9,17.1,42.8,26.2,51.5c-1.7,4.7-3.7,9.8-7.2,15.4
			c-16-8.1-32.3-28.2-33.5-55.8C34.5-79.7,39.4-83.5,44.8-86.4z M53.2,20c-6-2.1-11.6-5.2-16.6-9.2C63.7-7.4,69.4-22,73.8-33.8
			c5.1,0,10.7,0,17.5,1.4C90.6-19.4,81,8.5,53.2,20z M62.1-17c-3,4.3-6.9,8.9-12.3,13.8C35.7-13.5,23.6-22.8,16-49.3
			c2.1-8.3,6-16.1,11.5-22.8C29.8-43.3,47-24.7,62.1-17z M14.3-35.1c0-2.6,0.2-5.3,0.6-7.9c7.8,23.1,19.3,32.2,32.6,41.9
			c-3.7,3.2-8.1,6.5-13.3,9.9C21.5-2.3,14.3-18.2,14.3-35.1z M57.5,21.3c26.3-12.6,35.8-39.6,36.7-53c5.1,1.3,10.8,3.4,17.3,6.9
			c-3,19.2-8.5,33.1-26.7,46.9l0,0c-3.9,0.8-7.9,1.3-12,1.3C67.5,23.3,62.4,22.6,57.5,21.3z M91.9,20.1
			c14.4-12.7,19.6-26.3,22.3-43.3c4.1,2.3,8.4,5.1,13.2,8.5C121.4,1.5,108.3,14.3,91.9,20.1z M128.5-17.7
			C101.7-36.8,86-36.8,73.4-36.8h-0.1l-0.1-0.1c-4.1-3.9-8.6-8.3-12.8-14.9c15-7.8,45.7-8.8,70.6,12.8c0.1,1.3,0.1,2.6,0.1,3.9
			C131.1-29.1,130.2-23.2,128.5-17.7z"/>
	</g>
	<g id="Ultralight-L" transform="matrix(1 0 0 1 487.616 1556)">
		<path d="M72.1-95.9c-9.8,0-19.1,2.3-27.2,6.4c-6.6,3.3-12.5,7.8-17.5,13.2c-6.9,7.5-12,16.8-14.5,27.1c-1.1,4.5-1.6,9.2-1.6,14.1
			c0,18.7,8.4,35.3,21.6,46.5C38.5,16.1,45,19.9,52,22.3c6.3,2.2,13,3.4,20.1,3.4c33.6,0,60.8-27.2,60.8-60.8S105.7-95.9,72.1-95.9z
			 M50.9-70.4c17.1-9.7,44.8-12.8,69,2c0.2,0.1,1.1,0.7,1.1,0.7c5.3,7.8,8.5,16.3,9.6,26.2c-23.4-19.7-54.7-21.6-72.4-11.9
			C55.6-58,53.1-63.5,50.9-70.4z M118-71.8c-24-13.2-50.8-10-67.8-0.6c-1.4-4.6-2.6-9.8-3.7-15.7c8-3.9,16.6-5.8,25.5-5.8
			C90.7-93.9,107.2-85.2,118-71.8z M44.7-87.1C50.6-54.5,61.8-43.7,70.9-35l0,0l0,0c-1.8,4.8-3.8,10.1-7.5,16
			c-16.2-8-32.8-28.3-33.9-56.2c0-0.1,0.1-0.5,0.1-0.5C34.1-80.4,39.1-84.1,44.7-87.1z M27.7-73.6c1.7,29.7,19.4,48.7,34.7,56.3
			c-3,4.5-7.1,9.3-12.9,14.5C35.3-13.1,23.1-22.4,15.6-49c-0.1-0.2-0.3-1-0.3-1C17.5-58.9,21.7-66.7,27.7-73.6z M13.3-35.1
			c0-3.7,0.4-7.3,1-10.9c3.4,11.3,7.9,20,14,27.3C33.8-12,40.2-7.1,47.8-1.5c-4,3.4-8.7,7-14.4,10.7C20.7-1.9,13.3-18,13.3-35.1z
			 M35.1,10.6C62.9-7.8,68.4-22.5,72.8-34.3c5.3,0,11.1,0,18.1,1.5C90.5-20,81,8.5,52.6,20c-0.2,0.1-0.7,0.1-0.7,0.1
			C45.7,17.9,40.3,14.8,35.1,10.6z M55,21.2C82.7,9.1,92.3-19.1,92.9-32.3c5.3,1.3,11.2,3.5,18.1,7.2C108-5.8,102.6,8.2,84.3,22
			c-0.2,0.2-1.4,0.8-1.4,0.8c-3.8,0.8-6.8,1-10.8,1C66.3,23.7,60.5,22.9,55,21.2z M88,21.5c16.5-13.4,22-27.6,24.9-45.7
			c4.4,2.5,9.2,5.5,14.4,9.3C120.9,2.8,106.2,16.4,88,21.5z M128-16.8C101.5-36,85.9-36.3,73.5-36.3c-0.2,0-0.4,0-0.7,0h-0.3
			l-0.2-0.2c-4.1-4-8.8-8.4-13.1-15.3c17.4-9.4,48.4-7.3,71.2,12.7c0.1,0.1,0.4,0.4,0.4,0.4s0.1,2.3,0.1,3.6
			C130.9-28.7,129.9-22.6,128-16.8z"/>
	</g>
	<g id="Black-M" transform="matrix(1 0 0 1 2870.97 1126)">
		<path d="M62.4-88.9c-8.6,0-16.8,2-24,5.7c-5.8,2.9-11,6.9-15.4,11.6C16.9-65,12.4-56.8,10.2-47.7c-0.9,4-1.4,8.2-1.4,12.4
			c0,16.5,7.4,31.2,19.1,41c4.9,4.2,10.6,7.5,16.9,9.6c5.5,1.9,11.5,3,17.7,3c29.6,0,53.7-24,53.7-53.7C116-64.8,92-88.9,62.4-88.9z
			 M106.2-35.2c0,2.5-0.2,4.9-0.6,7.2c-1.8-1.1-3.6-2.2-5.3-3.1c-0.1-0.1-0.2-0.1-0.3-0.2c-7.3-3.9-13.5-6.2-19-7.4
			c-0.1,0-0.2,0-0.3-0.1c-6.4-1.5-11.8-1.6-16.4-1.6c-2.3-2.3-4.8-4.7-7.2-8c11.9-4.2,31.5-3.8,48.9,8.5
			C106.2-38.3,106.2-36.7,106.2-35.2z M63.8,8.6C76.4-2.5,82.3-17.3,84.1-27.6c2.5,0.8,5.2,2,8.1,3.4C90.1-12.3,86.5-3,77.6,5.9
			C73.3,7.5,68.7,8.5,63.8,8.6z M47.9,6.2c-2.7-0.9-5.3-2.2-7.8-3.6c1.9-1.5,3.7-2.9,5.3-4.3c0.1-0.1,0.2-0.2,0.4-0.3
			C51.8-7.3,56-12.3,59-17c0.1-0.1,0.1-0.2,0.2-0.3c3.1-4.8,5-9.2,6.5-13.2c2.7,0,5.7,0.2,8.9,0.6c-1.5,10.3-8.4,27.2-25,36.6
			C49.1,6.6,48.5,6.4,47.9,6.2z M94.2-65.3c3.3,3.5,6,7.5,8.1,12C93.9-57.4,86-59.2,79.9-60c-10.2-1.2-20.1,0-28.1,3.3
			c-1.1-2.3-2.3-4.8-3.3-7.7C60.6-70.2,77.8-72,94.2-65.3z M65.2-79c-7.1,0.7-13.8,2.6-19.5,5.1c-0.1-0.6-0.3-1.2-0.4-1.7
			c5.4-2.3,11.1-3.5,17.1-3.5C63.3-79.1,64.3-79,65.2-79z M36.4-70.6c0.5,1.8,1,3.5,1.5,5.2c0,0.1,0.1,0.2,0.1,0.3
			c2.2,7.1,4.8,12.7,7.5,17.2v0.1l0.1,0.1c3.7,6,7.5,10.2,11,13.6c-0.9,2.4-2,4.9-3.4,7.6c-9.1-5.7-20.9-18.1-23.7-37.7
			c0.2-0.2,0.4-0.5,0.6-0.7C32.1-67,34.2-68.9,36.4-70.6z M22.1-52.6c5,16.4,15.5,27.9,25.7,34.3c-1.6,2-3.5,4.1-5.8,6.3
			c-9.6-7.1-17.4-13.9-23.2-28.9c0.2-1.5,0.5-3.1,0.8-4.6C20.3-47.8,21.1-50.2,22.1-52.6z M23.4-15c3.5,3.7,7.2,6.8,11,9.7
			c-0.8,0.6-1.6,1.2-2.4,1.8C28.5-6.9,25.6-10.8,23.4-15z M99.4-11.7c0.7-2.4,1.4-4.9,1.9-7.5c0.5,0.3,1,0.6,1.5,1
			C101.8-15.9,100.7-13.7,99.4-11.7z"/>
	</g>
	<g id="Heavy-M" transform="matrix(1 0 0 1 2575.19 1126)">
		<path d="M61.5-88C53-88,45-86,37.8-82.4c-5.7,2.9-10.9,6.8-15.2,11.4c-6,6.5-10.4,14.6-12.5,23.5c-0.9,3.9-1.4,8-1.4,12.2
			C8.7-19.1,16-4.6,27.5,5.1c4.9,4.1,10.5,7.3,16.6,9.5c5.5,1.9,11.3,2.9,17.4,2.9c29.2,0,52.8-23.6,52.8-52.8S90.6-88,61.5-88z
			 M105.3-35.2c0,2.7-0.3,5.3-0.7,7.8c-2-1.3-4-2.5-5.9-3.5c-0.1,0-0.1-0.1-0.2-0.1c-7.2-3.9-13.4-6.1-18.8-7.3l0,0
			c-6.4-1.5-11.7-1.6-16.3-1.6c-2.4-2.3-5-4.9-7.5-8.3c11.9-4.4,31.8-4.1,49.3,8.6C105.2-38.2,105.3-36.7,105.3-35.2z M61.7,8.6
			c13.2-11,19.3-26.4,21-36.7c2.7,0.9,5.5,2,8.6,3.6C89.2-12.4,85.5-2.9,76.2,6.1C71.6,7.7,66.7,8.6,61.7,8.6z M47,6.1
			c-2.9-1-5.7-2.3-8.3-3.9c2.1-1.6,4.1-3.2,5.8-4.8c0.1-0.1,0.3-0.2,0.4-0.3c5.9-5.2,9.9-10.1,12.9-14.6c0.1-0.1,0.1-0.2,0.2-0.3
			c3.1-4.8,5-9.2,6.5-13.1c2.8,0,5.9,0.1,9.3,0.7C72.4-20,65.4-2.7,48.5,6.7C48.1,6.5,47.6,6.3,47,6.1z M93.7-64.8
			c3.4,3.7,6.2,8,8.2,12.7c-8.7-4.5-16.9-6.4-23.2-7.2c-10.1-1.2-19.9,0-27.8,3.3c-1.2-2.4-2.4-5.1-3.5-8.1
			C59.7-70,77.2-71.9,93.7-64.8z M69.3-78.3c-9,0.3-17.4,2.3-24.5,5.5c-0.2-0.9-0.4-1.8-0.6-2.7c5.4-2.3,11.2-3.5,17.3-3.5
			C64.2-79,66.8-78.7,69.3-78.3z M36.1-70.8c0.5,2.1,1.1,4,1.6,5.8c0,0.1,0.1,0.2,0.1,0.3c2.2,7,4.7,12.4,7.4,16.8v0.1
			c0,0.1,0.1,0.1,0.1,0.2c3.6,6,7.5,10,10.9,13.4c-1,2.5-2.1,5.2-3.6,8.1c-10.9-6.6-21.3-20.1-23.8-38.1c0.2-0.2,0.3-0.4,0.5-0.6
			C31.4-67.1,33.6-69.1,36.1-70.8z M21.8-53.7c4.8,16.9,15.5,28.7,25.9,35C46-16.5,44-14.3,41.6-12c-9.7-7.2-17.7-14-23.4-29.4
			c0.2-1.4,0.4-2.7,0.7-4.1C19.6-48.2,20.6-51,21.8-53.7z M21.2-18c4.1,4.9,8.6,8.6,13.3,12.2c-1,0.8-2.1,1.6-3.2,2.4
			C27-7.6,23.5-12.6,21.2-18z M96.5-9c1.3-3.5,2.2-7.1,3-11c0.8,0.5,1.6,1,2.4,1.5C100.5-15,98.7-11.9,96.5-9z"/>
	</g>
	<g id="Bold-M" transform="matrix(1 0 0 1 2279.5 1126)">
		<path d="M60.5-86.9c-8.3,0-16.2,2-23.2,5.5c-5.6,2.8-10.6,6.6-14.9,11.2c-5.9,6.4-10.2,14.3-12.3,23.1c-0.9,3.8-1.4,7.9-1.4,12
			C8.7-19.2,15.8-5,27.1,4.4c4.8,4,10.3,7.2,16.3,9.3c5.3,1.9,11.1,2.9,17.1,2.9c28.6,0,51.7-23.2,51.7-51.7
			C112.2-63.8,89-86.9,60.5-86.9z M104.2-35.2c0,2.9-0.3,5.8-0.9,8.6c-2.3-1.5-4.5-2.8-6.7-4c-0.1-0.1-0.2-0.1-0.3-0.2
			c-6.9-3.7-12.8-5.8-18-7c-0.1,0-0.2,0-0.2-0.1c-6.3-1.4-11.5-1.5-16-1.5c-2.5-2.4-5.2-5.1-7.8-8.7c11.8-4.6,32.1-4.4,49.8,8.7
			C104.1-38.1,104.2-36.7,104.2-35.2z M47.4,6.5C46.9,6.4,46.5,6.2,46,6c-3.1-1.1-6.1-2.5-8.9-4.3c2.4-1.8,4.6-3.6,6.6-5.3
			c0.1,0,0.1-0.1,0.2-0.2c5.8-5.1,9.8-9.9,12.7-14.3c0.1-0.1,0.2-0.3,0.3-0.4c3.1-4.8,4.9-9.1,6.4-12.9c3,0,6.2,0.1,9.9,0.7
			C71.8-20.5,64.8-2.8,47.4,6.5z M93.2-64.2c3.5,4,6.3,8.5,8.2,13.6c-9-5-17.6-7-24.1-7.8c-10-1.2-19.7,0-27.3,3.4
			c-1.3-2.5-2.6-5.4-3.7-8.7C58.5-69.8,76.4-71.7,93.2-64.2z M73.5-77c-10.9-0.6-21.3,1.7-29.6,5.5c-0.3-1.2-0.6-2.5-0.9-3.8
			c5.5-2.4,11.4-3.6,17.5-3.6C65-78.9,69.4-78.3,73.5-77z M35.7-71.3c0.6,2.4,1.2,4.6,1.8,6.7c0,0.1,0.1,0.2,0.1,0.3
			c2.1,6.8,4.6,12.1,7.2,16.4c0,0,0,0.1,0.1,0.1c0,0.1,0.1,0.1,0.1,0.2c3.6,5.9,7.4,9.9,10.8,13.2c-1,2.7-2.2,5.5-3.9,8.6
			c-11.1-6.6-21.7-20.2-24-38.6c0.1-0.2,0.3-0.3,0.4-0.5C30.5-67.3,33-69.4,35.7-71.3z M21.5-55.1c4.5,17.5,15.5,29.6,26,36
			c-1.8,2.3-3.9,4.7-6.6,7.2C31-19.2,23-26,17.2-42c0.2-1.1,0.4-2.3,0.6-3.4C18.7-48.7,19.9-52,21.5-55.1z M18.9-21.8
			c4.8,6.5,10.2,11,15.9,15.3c-1.3,1-2.7,2.1-4.2,3.2C25.1-8.4,21.1-14.8,18.9-21.8z M59,8.5c14-11,20.3-26.9,21.9-37.3
			c2.8,0.9,5.9,2.1,9.2,3.8C87.9-12.6,84.2-2.9,74.3,6.3c-4.4,1.5-9,2.3-13.9,2.3C60,8.5,59.5,8.5,59,8.5z M92.9-5.9
			c2.1-4.7,3.5-9.7,4.6-15c1.1,0.7,2.3,1.4,3.5,2.2C99-14,96.3-9.6,92.9-5.9z"/>
	</g>
	<g id="Semibold-M" transform="matrix(1 0 0 1 1983.5 1126)">
		<path d="M59.8-86.3c-8.2,0-16,1.9-22.9,5.4c-5.5,2.8-10.5,6.5-14.7,11c-5.8,6.3-10.1,14.1-12.1,22.8c-0.9,3.8-1.4,7.8-1.4,11.8
			c0,15.6,7,29.6,18.1,39c4.7,4,10.1,7.1,16,9.2c5.3,1.8,10.9,2.8,16.8,2.8c28.2,0,51-22.8,51-51S87.9-86.3,59.8-86.3z M103.7-35.3
			c0,3.2-0.4,6.3-1,9.3c-2.6-1.7-5-3.1-7.4-4.4c-0.1-0.1-0.3-0.2-0.4-0.2c-6.7-3.6-12.4-5.6-17.5-6.8c-0.2,0-0.3-0.1-0.5-0.1
			C70.7-38.9,65.6-39,61.1-39c-2.6-2.5-5.5-5.3-8.2-9.2c11.8-4.8,32.6-4.7,50.5,8.8C103.6-38,103.7-36.6,103.7-35.3z M45.3,6.2
			c-3.4-1.2-6.6-2.8-9.6-4.7c2.7-2,5.1-3.9,7.3-5.8c0.1,0,0.1-0.1,0.2-0.2c5.7-5,9.6-9.7,12.4-14c0.1-0.1,0.2-0.3,0.3-0.5
			c3.1-4.8,4.9-9.1,6.3-12.9c3.1,0,6.6,0.1,10.5,0.8C71.5-20.9,64.5-2.7,46.5,6.6C46.1,6.5,45.7,6.4,45.3,6.2z M93.2-63.7
			c3.6,4.2,6.4,9.1,8.2,14.5c-9.3-5.5-18.4-7.7-25.1-8.5c-9.9-1.2-19.6,0.1-27.1,3.4c-1.4-2.7-2.7-5.7-4-9.3
			C57.7-69.8,76.1-71.8,93.2-63.7z M77-75.7c-12.5-1.5-24.5,0.8-33.8,5.2c-0.4-1.6-0.8-3.2-1.2-5c5.6-2.5,11.6-3.8,17.8-3.8
			C65.9-79.2,71.7-77.9,77-75.7z M35.5-71.9c0.6,2.7,1.3,5.2,2,7.5c0,0.1,0.1,0.2,0.1,0.4c2.1,6.6,4.5,11.8,7,16c0,0,0,0.1,0.1,0.1
			c0,0.1,0.1,0.1,0.1,0.2c3.6,5.9,7.4,9.8,10.8,13.1c-1.1,2.8-2.3,5.9-4.1,9.1C40.2-32,29.3-46,27.2-64.8c0.1-0.1,0.2-0.2,0.3-0.4
			C29.9-67.6,32.6-69.9,35.5-71.9z M21.3-56.5c4.2,18.2,15.5,30.7,26.2,37c-1.9,2.5-4.2,5-7,7.8c-9.8-7.2-18.3-14.3-24.1-31
			c0.2-0.9,0.3-1.9,0.6-2.8C18-49.3,19.4-53,21.3-56.5z M17-25.2C22.3-17.1,28.5-11.8,35-7c-1.6,1.3-3.3,2.6-5.2,3.9
			C23.5-9.1,19-16.7,17-25.2z M56.7,8.5C71.6-2.4,78-19,79.6-29.5c3,0.9,6.3,2.2,9.8,4c-2.2,12.8-6,22.7-16.5,32.1
			c-4.2,1.3-8.6,2-13.2,2C58.8,8.7,57.7,8.6,56.7,8.5z M89.8-3.2c3-5.7,4.9-11.8,6.2-18.5c1.5,0.9,3,1.9,4.5,2.9
			C98.1-12.9,94.4-7.6,89.8-3.2z"/>
	</g>
	<g id="Medium-M" transform="matrix(1 0 0 1 1687.3 1126)">
		<path d="M59.3-85.7c-8.1,0-15.8,1.9-22.6,5.3c-5.5,2.8-10.4,6.5-14.5,10.9c-5.8,6.3-10,14-12,22.5c-0.9,3.8-1.4,7.7-1.4,11.7
			c0,15.5,7,29.4,18,38.6c4.7,3.9,10,7,15.9,9.1c5.2,1.8,10.8,2.8,16.7,2.8c27.9,0,50.5-22.6,50.5-50.5
			C109.8-63.1,87.2-85.7,59.3-85.7z M103.1-35.2c0,3.3-0.4,6.5-1.1,9.6c-2.7-1.8-5.2-3.3-7.7-4.6c-0.1-0.1-0.2-0.1-0.3-0.2
			c-6.6-3.5-12.3-5.6-17.3-6.8c-0.1,0-0.3-0.1-0.5-0.1C70-38.7,65-38.8,60.6-38.8c-2.7-2.6-5.5-5.4-8.3-9.3
			c11.8-4.9,32.6-4.9,50.6,8.9C103-37.9,103.1-36.6,103.1-35.2z M44.8,6.1c-3.5-1.2-6.7-2.9-9.8-4.9c2.8-2,5.3-4.1,7.5-6
			c0.1,0,0.1-0.1,0.2-0.2c5.6-4.9,9.5-9.6,12.3-13.8c0.1-0.2,0.2-0.3,0.3-0.5c3.1-4.7,4.8-9,6.3-12.8c3.2,0,6.7,0.1,10.6,0.8
			C71.1-21.1,64-2.8,45.9,6.4C45.5,6.4,45.2,6.3,44.8,6.1z M75.6-57.3c-9.8-1.2-19.4,0.1-26.9,3.5c-1.4-2.7-2.8-5.8-4.1-9.5
			c12.4-6.3,31-8.3,48.1,0c3.6,4.3,6.4,9.3,8.2,14.8C91.5-54.3,82.4-56.5,75.6-57.3z M77.9-74.9c-13-1.9-25.6,0.4-35.2,5
			c-0.4-1.7-0.9-3.5-1.3-5.4c5.6-2.5,11.6-3.8,17.8-3.8C65.9-79,72.3-77.5,77.9-74.9z M35.3-71.9c0.6,2.8,1.3,5.4,2.1,7.8
			c0,0.1,0.1,0.2,0.1,0.3c2.1,6.6,4.4,11.7,6.9,15.9c0,0,0,0.1,0.1,0.1c0,0.1,0.1,0.1,0.2,0.2c3.6,5.9,7.3,9.8,10.7,13
			c-1.1,2.9-2.3,6-4.2,9.3c-11.3-6.5-22.3-20.5-24.3-39.4c0.1-0.1,0.2-0.2,0.3-0.3C29.5-67.6,32.3-69.9,35.3-71.9z M21.2-56.9
			c4,18.4,15.4,31,26.2,37.3c-1.9,2.5-4.2,5.2-7.2,7.9C30.4-18.9,21.9-26,16.1-42.9c0.1-0.8,0.3-1.7,0.5-2.5
			C17.6-49.4,19.2-53.3,21.2-56.9z M16.3-26.5C21.7-17.7,28.2-12.3,35-7.2c-1.7,1.3-3.5,2.7-5.5,4.1C22.7-9.4,18.2-17.6,16.3-26.5z
			 M55.6,8.4C70.8-2.4,77.3-19.3,78.8-29.7c3.1,0.9,6.4,2.3,10.1,4.1C86.7-12.7,82.8-2.8,72.1,6.6C68,7.8,63.7,8.5,59.3,8.5
			C58,8.6,56.8,8.5,55.6,8.4z M88.1-2.3c3.5-6.1,5.5-12.6,6.9-19.8c1.6,1,3.2,2,4.9,3.2C97.3-12.5,93.2-6.8,88.1-2.3z"/>
	</g>
	<g id="Regular-M" transform="matrix(1 0 0 1 1391.3 1126)">
		<path d="M58.5-85.1c-8,0-15.6,1.9-22.3,5.3C30.8-77.1,26-73.4,21.9-69c-5.7,6.2-9.8,13.8-11.8,22.2c-0.9,3.7-1.3,7.6-1.3,11.5
			C8.8-20,15.7-6.4,26.5,2.8c4.6,3.9,9.9,6.9,15.7,8.9c5.1,1.8,10.7,2.8,16.4,2.8c27.5,0,49.8-22.3,49.8-49.8S86-85.1,58.5-85.1z
			 M44.1,6.1c-3.6-1.3-7.1-3-10.2-5.2c3-2.2,5.7-4.3,8-6.4C42-5.6,42-5.6,42.1-5.7c5.5-4.8,9.3-9.4,12-13.5c0.1-0.2,0.3-0.3,0.4-0.5
			c3-4.7,4.8-9,6.2-12.8c3.3,0,6.9,0.1,11,0.8c-1,10.1-8.1,28.8-26.7,38C44.7,6.3,44.4,6.2,44.1,6.1z M59.7-38.4
			C57-41,54-43.9,51.2-48c11.7-5,32.9-5.1,51,9c0.1,1.3,0.2,2.5,0.2,3.8c0,3.5-0.4,6.9-1.2,10.1c-2.9-1.9-5.6-3.6-8.2-5
			c-0.1-0.1-0.2-0.1-0.3-0.2c-6.5-3.5-12.1-5.5-17-6.7c-0.1,0-0.2-0.1-0.3-0.1C69.1-38.4,64.1-38.4,59.7-38.4z M92.4-62.9
			c3.7,4.5,6.4,9.7,8.1,15.4c-9.6-6.1-19.1-8.4-25.9-9.2c-9.8-1.2-19.3,0.1-26.6,3.5c-1.5-2.8-2.9-6-4.3-9.9
			C56.3-69.6,75.1-71.6,92.4-62.9z M79.8-73.5c-13.9-2.8-27.6-0.4-37.8,4.6c-0.5-1.9-1-4-1.5-6.2c5.7-2.6,11.7-3.9,18-3.9
			C66.2-79.1,73.5-77,79.8-73.5z M35-72.2c0.7,3,1.4,5.8,2.2,8.4c0,0.1,0.1,0.2,0.1,0.4c2,6.4,4.4,11.5,6.8,15.6
			c0,0.1,0,0.1,0.1,0.2c0,0.1,0.1,0.2,0.2,0.2c3.6,5.8,7.3,9.7,10.6,12.9c-1.1,3-2.4,6.2-4.4,9.7C39.2-31.2,28-45.4,26.1-64.6
			c0.1-0.1,0.1-0.1,0.2-0.2C28.9-67.8,31.8-70.2,35-72.2z M21-57.9c3.7,18.9,15.4,31.7,26.2,38c-2,2.6-4.4,5.4-7.5,8.3
			C29.8-18.9,21.1-26,15.4-43.3c0.1-0.7,0.3-1.4,0.4-2.1C16.9-49.8,18.7-54.1,21-57.9z M15.2-29c5.6,10.1,12.6,15.9,20,21.4
			c-1.9,1.5-3.9,3.1-6.2,4.7C21.4-9.8,16.6-19,15.2-29z M53.7,8.3c15.8-10.7,22.5-28,23.8-38.5c3.2,1,6.7,2.3,10.5,4.3
			C85.8-12.8,81.9-2.8,70.7,6.8c-3.9,1.1-8,1.7-12.2,1.7C56.9,8.6,55.3,8.5,53.7,8.3z M85.2-0.6c4.4-6.8,6.8-14,8.3-22.2
			c1.8,1.1,3.7,2.3,5.7,3.7C96.3-11.8,91.4-5.4,85.2-0.6z"/>
	</g>
	<g id="Light-M" transform="matrix(1 0 0 1 1095.42 1126)">
		<path d="M57.7-84.2c-7.9,0-15.3,1.9-21.9,5.2c-5.3,2.7-10.1,6.3-14.1,10.6c-5.6,6.1-9.7,13.5-11.6,21.8C9.2-43,8.8-39.2,8.8-35.2
			c0,15,6.8,28.5,17.4,37.4C30.7,6,35.9,9,41.6,11c5.1,1.8,10.5,2.7,16.2,2.7c27,0,49-21.9,49-49C106.7-62.3,84.7-84.2,57.7-84.2z
			 M43.1,6.6c-4-1.4-7.8-3.4-11.2-5.9C51.3-12.9,56-24,59.4-33.1c3.5,0,7.4,0.1,11.9,0.9C70.5-22.1,63.2-2.4,43.7,6.7
			C43.5,6.7,43.3,6.7,43.1,6.6z M58.6-37.7c-2.9-2.8-6-5.9-9.1-10.3c11.7-5.3,33.8-5.7,52.2,9.3c0.1,1.2,0.2,2.4,0.2,3.6
			c0,3.9-0.5,7.7-1.5,11.3C80.5-37.5,68.4-37.7,58.6-37.7z M73.5-55.7c-9.7-1.2-19.2,0.2-26.4,3.6c-1.7-3-3.2-6.5-4.7-10.8
			c12.8-6.8,32.5-8.9,50.3,0.7c3.8,4.9,6.6,10.6,8,16.8C90.7-52.3,80.6-54.9,73.5-55.7z M83.8-71c-15.6-4.6-31.5-2.2-42.7,3.5
			c-0.7-2.4-1.3-5.1-1.9-7.9c5.8-2.7,12-4.1,18.5-4.1C67.4-79.5,76.4-76.3,83.8-71z M34.9-73.1C39.7-50.1,48-41.4,55-34.7
			c-1.2,3.2-2.6,6.7-4.8,10.5c-11.8-6.4-23.4-21-25-40.9C28-68.3,31.3-71,34.9-73.1z M21-60c3.1,20.1,15.3,33.4,26.5,39.6
			c-2.1,2.9-4.7,5.9-8.2,9.1C29-18.8,20.1-26,14.3-44.4c0.1-0.4,0.2-0.8,0.2-1.2C15.8-50.7,18-55.6,21-60z M13.5-33.6
			c5.9,12.8,13.8,19.3,22.2,25.5c-2.2,1.9-4.8,3.8-7.6,5.7C19.1-10.4,13.9-21.6,13.5-33.6z M50.4,8.5C67.7-2,74.7-20.5,75.8-31
			c3.4,1,7.2,2.5,11.5,4.6C85-12.7,81-2.4,68.9,7.6C65.3,8.5,61.6,9,57.7,9C55.2,9.1,52.8,8.9,50.4,8.5z M80.4,2.8
			c6.5-8,9.5-16.6,11.3-26.7c2.3,1.4,4.7,2.9,7.3,4.7C95.4-10,88.8-2.3,80.4,2.8z"/>
	</g>
	<g id="Thin-M" transform="matrix(1 0 0 1 799.806 1126)">
		<path d="M56.6-83c-7.7,0-15,1.8-21.5,5.1c-5.2,2.6-9.8,6.1-13.8,10.4c-5.5,5.9-9.5,13.2-11.4,21.4C9.1-42.5,8.6-38.8,8.6-35
			c0,14.7,6.6,27.8,17,36.6c4.4,3.7,9.5,6.7,15.1,8.6c4.9,1.7,10.3,2.7,15.8,2.7c26.4,0,47.9-21.4,47.9-47.9
			C104.5-61.6,83.1-83,56.6-83z M93.1-61.2c3.9,5.4,6.6,11.8,7.7,18.6c-18.1-13.8-41.3-15.1-54.9-8c-1.9-3.3-3.6-7.2-5.2-12
			C53.9-69.8,74.7-72,93.1-61.2z M88.1-67.1c-17.4-7.4-35.9-5-48.2,1.6c-0.9-3-1.7-6.4-2.4-10.2c6-2.8,12.4-4.3,19.1-4.3
			C68.9-80,80-75.1,88.1-67.1z M34.7-74.3c4.7,24.2,13.2,32.7,20.2,39.4c-1.3,3.5-2.8,7.3-5.3,11.5C37.4-29.7,25.1-45,24-65.8
			C27.1-69.2,30.7-72.1,34.7-74.3z M41.8,7.2c-4.5-1.6-8.7-3.9-12.5-6.8c20.5-13.9,25-25.2,28.4-34.3c3.8,0,8,0,13,1.1
			C70.2-22.7,62.8-1.7,41.8,7.2L41.8,7.2z M47.9-20.9c-2.2,3.2-5.2,6.6-9.2,10.2c-10.7-7.8-19.9-15-25.8-34.9c1.5-6.2,4.3-12,8.2-17
			C23.4-41,36.4-27,47.9-20.9z M11.7-35.1c0-1.3,0.1-2.7,0.2-4c6.1,16.4,15,23.5,24.5,30.5c-2.7,2.3-5.8,4.6-9.5,7.1
			C17.3-10.1,11.7-22.2,11.7-35.1z M46.2,8.5c19.4-10,26.7-30.1,27.5-40.6c3.8,1,8,2.6,12.8,5.1C84.2-12.5,80-1.9,66.5,8.6
			c-3.2,0.7-6.5,1.1-9.9,1.1C53.1,9.7,49.6,9.3,46.2,8.5z M73.7,6.4C83.5-3,87.2-13,89.3-25.4c2.9,1.7,6,3.7,9.3,6
			C94.2-7.7,85.2,1.6,73.7,6.4z M99.6-22.3C79.1-36.7,67-36.8,57.2-36.8c-3.1-3-6.5-6.3-9.7-11.2c11.7-5.8,34.9-6.5,53.9,9.7
			c0.1,1,0.1,2.1,0.1,3.2C101.5-30.7,100.8-26.4,99.6-22.3z"/>
	</g>
	<g id="Ultralight-M" transform="matrix(1 0 0 1 503.656 1126)">
		<path d="M56-82.5c-7.6,0-14.8,1.8-21.2,5c-5.1,2.6-9.7,6.1-13.6,10.2c-5.4,5.9-9.3,13.1-11.3,21.1c-0.8,3.5-1.3,7.2-1.3,11
			C8.6-20.7,15.1-7.7,25.4,1c4.4,3.7,9.4,6.6,14.9,8.5c4.9,1.7,10.1,2.6,15.6,2.6c26.1,0,47.3-21.2,47.3-47.3S82.2-82.5,56-82.5z
			 M93.4-60.8c4,5.8,6.6,12.6,7.6,19.9c-18.1-14.8-42-16.2-55.7-8.9c-2-3.4-3.9-7.5-5.5-12.7C53-70,74.4-72.3,93.2-60.9
			C93.2-60.8,93.3-60.8,93.4-60.8z M90.4-64.7c-18.3-9.3-38.3-6.9-51.2,0.2c-1-3.4-1.9-7.2-2.7-11.6c6.1-2.9,12.7-4.4,19.6-4.4
			C69.7-80.5,82-74.3,90.4-64.7z M34.6-75.1C39.2-50.2,47.9-41.8,54.9-35c-1.4,3.7-2.9,7.7-5.7,12.1c-12.5-6.3-25.2-21.9-26-43.4
			C26.5-69.9,30.3-72.8,34.6-75.1z M40.8,7.6L40.8,7.6c-4.7-1.7-9.1-4.1-13-7.2C49-13.8,53.3-25.1,56.7-34.2c4,0,8.4,0,13.7,1.1
			C70.1-23.1,62.6-1.3,40.8,7.6z M48.1-21.2c-2.3,3.4-5.4,7-9.7,10.9c-10.9-8-20.4-15.2-26.2-35.8c0-0.1-0.1-0.1-0.1-0.2
			c1.7-6.6,4.8-12.7,9.2-18C22.9-41.7,36.4-27.2,48.1-21.2z M10.7-35.1c0-2.4,0.2-4.8,0.6-7.1c6,18.5,15.1,25.6,25.6,33.3
			c-3,2.5-6.5,5.2-10.6,7.9C16.3-9.6,10.7-22,10.7-35.1z M43.6,8.5c20.8-9.6,28.2-30.9,28.8-41.2c4,1,8.5,2.7,13.7,5.4
			C83.8-12.4,79.5-1.6,65.4,9c-0.1,0.1-0.1,0.1-0.2,0.2c-3,0.6-6,0.9-9.2,0.9C51.8,10.2,47.6,9.6,43.6,8.5z M69.8,8.1
			C81.6-2,85.7-12.7,87.9-26.2c3.3,1.8,6.8,4.1,10.6,6.9C93.7-6.4,83.1,3.8,69.8,8.1z M99.2-21.4C78.4-36.3,66.3-36.3,56.5-36.3
			h-0.1l-0.1-0.1c-3.2-3.1-6.7-6.4-10-11.7c13.5-7.2,37.3-5.5,54.9,10c0.1,1,0.1,2,0.1,2.9C101.3-30.3,100.6-25.7,99.2-21.4z"/>
	</g>
	<g id="Black-S" transform="matrix(1 0 0 1 2884.57 696)">
		<path d="M49.1-77.2c-6.8,0-13.2,1.6-18.8,4.4c-4.6,2.3-8.6,5.4-12.1,9.1c-4.8,5.2-8.3,11.6-10,18.7c-0.7,3.1-1.1,6.4-1.1,9.7
			c0,12.9,5.8,24.4,14.9,32.1c3.9,3.3,8.3,5.8,13.2,7.5c4.3,1.5,9,2.3,13.9,2.3c23.2,0,42-18.8,42-42S72.2-77.2,49.1-77.2z
			 M81.2-35.2c0,1.1-0.1,2.2-0.2,3.3c-0.6-0.3-1.2-0.7-1.8-1c0,0-0.1,0-0.1-0.1c-5.9-3.2-11-5-15.4-6l0,0c-5-1.1-9.1-1.3-12.7-1.3
			c-1.4-1.4-2.9-2.9-4.3-4.6c8.8-2.6,22.1-2,34.3,5.9C81.2-37.7,81.2-36.5,81.2-35.2z M38.4-4.8c-1.4-0.5-2.7-1-4-1.7
			c0.7-0.6,1.4-1.2,2-1.7c0.1-0.1,0.1-0.1,0.2-0.2c4.9-4.3,8.2-8.3,10.7-12.1c0,0,0,0,0-0.1c2.4-3.6,3.8-6.9,5-9.9
			c1.6,0,3.2,0.1,5,0.3c-1.4,7.4-6.4,18.8-17.2,25.8C39.6-4.4,39-4.6,38.4-4.8z M18.1-44c4.2,10.2,11.1,17.7,18,22.3
			c-0.9,1.1-1.9,2.2-3,3.3c-6.5-4.9-12-9.8-16.1-19.3c0.1-1.7,0.4-3.4,0.8-5C17.8-43.1,18-43.6,18.1-44z M62.1-5.8
			c-2.5,1.1-5.1,1.9-7.8,2.4c7.3-7.9,11.1-17.3,12.6-24.4c1.4,0.5,2.8,1.1,4.3,1.8C69.8-18.2,67.4-11.8,62.1-5.8z M71-58.7
			c2,1.9,3.8,4,5.3,6.4c-12.6-4.9-25.5-4.7-35-1c-0.6-1.3-1.2-2.6-1.7-4.1C48.1-61.3,59.6-62.6,71-58.7z M28.4-59.9
			c0.1,0.5,0.3,1,0.4,1.5c0,0.1,0,0.1,0.1,0.2c1.8,5.7,3.8,10.1,6,13.7l0,0l0,0c2.8,4.6,5.7,7.8,8.4,10.4c-0.5,1.4-1.1,2.7-1.8,4.2
			C35.1-34.3,27.2-43,24.7-56.2c0.2-0.3,0.4-0.5,0.7-0.8C26.3-58.1,27.4-59,28.4-59.9z"/>
	</g>
	<g id="Heavy-S" transform="matrix(1 0 0 1 2588.47 696)">
		<path d="M48.3-76.6c-6.6,0-12.9,1.6-18.5,4.4c-4.5,2.2-8.5,5.3-11.8,8.9c-4.7,5.1-8.1,11.4-9.8,18.4c-0.7,3.1-1.1,6.3-1.1,9.6
			c0,12.7,5.7,24,14.7,31.5c3.8,3.2,8.2,5.7,13,7.4c4.3,1.5,8.8,2.3,13.6,2.3c22.8,0,41.3-18.5,41.3-41.3
			C89.6-58.1,71.1-76.6,48.3-76.6z M52.3-3.4c7.9-8,11.9-17.9,13.4-25.1c1.5,0.5,3.1,1.2,4.9,2c-1.5,8.1-4,14.7-9.6,20.8
			C58.2-4.5,55.3-3.7,52.3-3.4z M37.7-4.9c-1.6-0.5-3.1-1.2-4.5-2c0.9-0.7,1.8-1.5,2.6-2.2C35.9-9.2,36-9.2,36-9.3
			c4.8-4.2,8-8.1,10.4-11.7c0,0,0-0.1,0.1-0.1c2.3-3.6,3.8-6.9,5-9.9c1.7,0,3.5,0.1,5.5,0.4c-1.3,7.4-6.4,19.2-17.6,26.2
			C38.8-4.6,38.2-4.7,37.7-4.9z M17.7-45.4C21.8-34.6,29-26.8,36.1-22.1c-1,1.2-2.1,2.4-3.4,3.7c-6.7-5-12.2-9.9-16.4-19.9
			c0.1-1.5,0.4-3,0.7-4.5C17.1-43.7,17.4-44.6,17.7-45.4z M25.6-12.4L25.6-12.4C25.6-12.4,25.6-12.5,25.6-12.4
			C25.6-12.5,25.6-12.4,25.6-12.4z M77.9-32.8c-0.1,0-0.1-0.1-0.2-0.1C72-36,67.1-37.7,62.9-38.7c-0.1,0-0.2,0-0.2-0.1
			c-4.9-1.1-8.9-1.2-12.5-1.2c-1.5-1.5-3.1-3.1-4.7-5c8.8-2.8,22.5-2.3,34.9,6c0.1,1.2,0.2,2.4,0.2,3.7s-0.1,2.7-0.3,4
			C79.5-31.9,78.7-32.4,77.9-32.8z M70.7-58.5c2.2,2.1,4.1,4.5,5.6,7.2c-12.8-5.4-26.2-5.3-35.8-1.5c-0.7-1.4-1.3-2.9-2-4.6
			C47.2-61.3,59.1-62.7,70.7-58.5z M28.2-60.5c0.2,0.7,0.4,1.5,0.6,2.2c0,0.1,0,0.1,0.1,0.2c1.7,5.5,3.8,9.9,5.9,13.4l0,0l0,0
			c2.7,4.5,5.6,7.7,8.3,10.3c-0.6,1.5-1.2,3-2.1,4.6C34.5-34.2,26.4-43,24-56.6c0.2-0.2,0.4-0.5,0.6-0.7
			C25.7-58.4,26.9-59.5,28.2-60.5z"/>
	</g>
	<g id="Bold-S" transform="matrix(1 0 0 1 2292.44 696)">
		<path d="M47.8-75.9c-6.6,0-12.8,1.6-18.2,4.3c-4.4,2.2-8.4,5.2-11.7,8.8c-4.6,5-8,11.3-9.7,18.1c-0.7,3-1.1,6.2-1.1,9.4
			c0,12.5,5.6,23.7,14.5,31.1c3.7,3.2,8.1,5.7,12.8,7.3c4.2,1.5,8.7,2.3,13.4,2.3c22.5,0,40.7-18.2,40.7-40.7
			C88.5-57.7,70.3-75.9,47.8-75.9z M50-2.6c8.8-8.2,13.1-18.9,14.5-26.4c1.8,0.6,3.6,1.4,5.6,2.3c-1.6,8.6-4.2,15.5-10.5,21.9
			C56.7-3.6,53.4-2.8,50-2.6z M37-4.4c-1.9-0.6-3.6-1.5-5.3-2.4c1.2-1,2.4-1.9,3.5-2.9l0.1-0.1c4.7-4.1,7.9-8,10.2-11.5
			c0-0.1,0.1-0.1,0.1-0.2c2.4-3.6,3.8-6.9,4.9-9.9c1.9,0,4,0.1,6.2,0.4c-1.2,7.5-6.5,20-18.3,27C38-4,37.5-4.2,37-4.4z M20.4-17.5
			c1.9,1.7,3.8,3.3,5.8,4.8c-0.4,0.3-0.7,0.6-1.1,0.9C23.3-13.5,21.7-15.4,20.4-17.5z M17.4-47.2c3.9,11.7,11.5,20.1,19,24.8
			c-1.1,1.4-2.4,2.9-4,4.3c-7-5.2-12.8-10.3-17-21c0.1-1.3,0.4-2.6,0.7-3.8C16.4-44.3,16.8-45.7,17.4-47.2z M76.8-32.3
			c-0.1,0-0.2-0.1-0.2-0.1c-5.5-3-10.3-4.7-14.4-5.6c-0.1,0-0.2,0-0.3-0.1c-4.8-1.1-8.9-1.2-12.4-1.2c-1.7-1.6-3.4-3.4-5.1-5.6
			c8.9-3,23.2-2.6,36,6.2c0.1,1.2,0.2,2.3,0.2,3.5c0,1.7-0.1,3.3-0.4,4.9C79-31.1,77.9-31.7,76.8-32.3z M77.9-22.4
			c-0.3,0.6-0.5,1.2-0.8,1.7c0.2-0.7,0.3-1.3,0.5-2C77.6-22.5,77.8-22.4,77.9-22.4z M71.2-58.1c2.4,2.4,4.4,5.2,5.9,8.3
			c-6-2.8-11.6-4-15.9-4.5c-7.7-0.9-15.2,0-21.2,2.4c-0.8-1.6-1.6-3.3-2.3-5.3C46.6-61.4,59.2-62.8,71.2-58.1z M35.4-64.9
			c0-0.2-0.1-0.3-0.1-0.5c2.7-1.1,5.6-1.9,8.6-2.3C40.8-67,38-66.1,35.4-64.9z M28.1-61.3c0.3,1.1,0.6,2.2,0.9,3.3
			c0,0.1,0,0.1,0.1,0.2c1.7,5.4,3.7,9.7,5.7,13.1c0,0,0,0,0,0.1c0,0,0,0.1,0.1,0.1c2.8,4.5,5.7,7.7,8.3,10.2
			c-0.7,1.7-1.4,3.4-2.4,5.3c-6.7-4.3-15.3-13.5-17.5-27.8c0.2-0.2,0.3-0.4,0.5-0.6C25.1-58.8,26.5-60.1,28.1-61.3z"/>
	</g>
	<g id="Semibold-S" transform="matrix(1 0 0 1 1996.2 696)">
		<path d="M47.3-75.5c-6.5,0-12.6,1.5-18,4.3C24.9-69,21-66,17.7-62.5c-4.6,5-7.9,11.1-9.6,17.9c-0.7,3-1.1,6.1-1.1,9.3
			C7-23,12.6-11.9,21.3-4.5c3.7,3.1,8,5.6,12.7,7.2c4.2,1.5,8.6,2.2,13.3,2.2c22.2,0,40.2-18,40.2-40.2S69.6-75.5,47.3-75.5z
			 M47.9-2.1c9.7-8.4,14.3-19.8,15.7-27.5c2,0.7,4.1,1.5,6.3,2.6c-1.6,9.1-4.4,16.2-11.3,23C55.3-2.9,51.7-2.2,47.9-2.1z M36.4-4
			c-2.1-0.7-4.2-1.7-6.1-2.9c1.5-1.2,3-2.3,4.3-3.5l0.1-0.1c4.6-4,7.7-7.8,10-11.3c0.1-0.1,0.1-0.2,0.2-0.2c2.4-3.6,3.8-7,4.9-9.9
			c2.1,0,4.4,0.1,6.9,0.5c-1.1,7.7-6.4,20.6-19,27.8C37.2-3.7,36.8-3.8,36.4-4z M61.3-37.7c-0.1,0-0.2,0-0.2-0.1
			c-4.8-1.1-8.8-1.2-12.3-1.2c-1.8-1.7-3.7-3.7-5.6-6.1c9-3.3,23.9-3,37.1,6.4c0.1,1.1,0.2,2.3,0.2,3.4c0,1.9-0.2,3.8-0.5,5.7
			c-1.5-0.9-2.9-1.7-4.2-2.5c-0.1,0-0.1-0.1-0.2-0.1C70.1-35.1,65.4-36.7,61.3-37.7z M71.6-57.8c2.5,2.7,4.6,5.9,6.1,9.3
			c-6.5-3.3-12.6-4.7-17.2-5.2c-7.7-0.9-15.1,0-21.1,2.5c-0.9-1.8-1.8-3.7-2.6-6C46-61.6,59.1-63,71.6-57.8z M51.6-68.1
			c-6.2,0.4-11.9,1.9-16.8,4.1c-0.1-0.5-0.3-1.1-0.4-1.7c4.1-1.8,8.5-2.6,13-2.6C48.8-68.4,50.2-68.3,51.6-68.1z M27.9-62.1
			c0.4,1.5,0.8,2.9,1.2,4.2c0,0.1,0,0.2,0.1,0.2c1.7,5.3,3.6,9.5,5.6,12.9c0,0,0,0,0,0.1c0,0,0,0.1,0.1,0.1
			c2.8,4.5,5.7,7.6,8.3,10.2c-0.7,1.9-1.5,3.8-2.7,6c-8.2-5-16-15.2-18-28.7c0.1-0.2,0.3-0.3,0.4-0.5C24.5-59.3,26.1-60.8,27.9-62.1
			z M17.1-48.8c3.7,12.6,11.7,21.4,19.5,26.2c-1.3,1.6-2.7,3.2-4.5,4.9c-7.3-5.4-13.3-10.6-17.6-22c0.1-1.1,0.3-2.2,0.6-3.3
			C15.6-45,16.3-46.9,17.1-48.8z M17.3-21.2c2.9,3.2,6,5.8,9.3,8.3c-0.7,0.5-1.4,1.1-2.1,1.6C21.5-14.2,19.1-17.5,17.3-21.2z
			 M74.5-16.4c0.8-2.3,1.4-4.6,1.9-7c0.5,0.3,1,0.6,1.5,1C77-20.3,75.9-18.3,74.5-16.4z"/>
	</g>
	<g id="Medium-S" transform="matrix(1 0 0 1 1699.83 696)">
		<path d="M47-75.1c-6.4,0-12.5,1.5-17.9,4.2c-4.3,2.2-8.2,5.1-11.5,8.6c-4.6,4.9-7.9,11-9.5,17.8c-0.7,3-1.1,6.1-1.1,9.2
			c0,12.2,5.5,23.2,14.2,30.5c3.7,3.1,7.9,5.5,12.5,7.2c4.1,1.4,8.6,2.2,13.2,2.2c22,0,39.9-17.9,39.9-39.9S69-75.1,47-75.1z
			 M37.2-3.5c-0.4-0.1-0.8-0.2-1.2-0.4c-2.2-0.8-4.4-1.8-6.4-3c1.7-1.3,3.2-2.5,4.6-3.7l0.1-0.1c4.5-4,7.6-7.7,9.9-11.1
			c0.1-0.1,0.1-0.2,0.2-0.3c2.4-3.6,3.8-7,4.9-9.9c2.2,0,4.5,0.1,7.1,0.5C55.4-23.8,50.1-10.7,37.2-3.5z M48.4-38.7
			c-1.8-1.8-3.8-3.8-5.7-6.3c9-3.3,24.1-3.1,37.4,6.5c0.1,1.1,0.2,2.2,0.2,3.3c0,2.1-0.2,4.1-0.6,6c-1.6-1-3.1-1.9-4.6-2.7
			C75-31.9,75-32,74.9-32c-5.4-2.9-10-4.5-14-5.5c-0.1,0-0.1,0-0.2,0C55.8-38.6,51.8-38.7,48.4-38.7z M71.5-57.6
			c2.6,2.8,4.7,6.1,6.2,9.7c-6.6-3.5-12.9-4.9-17.7-5.5c-7.6-0.9-15.1,0-21,2.5c-0.9-1.8-1.8-3.9-2.7-6.2
			C45.6-61.6,58.9-63,71.5-57.6z M53.7-67.8c-7.1,0.1-13.8,1.7-19.3,4.2c-0.2-0.7-0.3-1.4-0.5-2.2c4.1-1.8,8.5-2.7,13.1-2.7
			C49.3-68.4,51.5-68.2,53.7-67.8z M27.8-62.3c0.4,1.6,0.8,3.1,1.3,4.5c0,0.1,0,0.2,0.1,0.2c1.6,5.3,3.6,9.4,5.6,12.7v0.1l0.1,0.1
			c2.8,4.5,5.7,7.6,8.3,10.1c-0.7,1.9-1.6,4-2.8,6.2c-8.3-5-16.2-15.3-18.1-29c0.1-0.1,0.2-0.3,0.4-0.4C24.2-59.5,25.9-61,27.8-62.3
			z M17-49.4c3.6,12.9,11.8,21.8,19.6,26.7c-1.3,1.7-2.8,3.4-4.7,5.2c-7.4-5.4-13.4-10.6-17.8-22.4c0.1-1,0.3-2,0.6-3
			C15.2-45.2,16-47.3,17-49.4z M16.3-22.7c3.2,3.9,6.8,6.9,10.5,9.6c-0.8,0.6-1.7,1.3-2.6,1.9C20.7-14.5,18-18.4,16.3-22.7z
			 M46.9-2.1C57-10.5,61.7-22.1,63-30c2,0.7,4.2,1.6,6.6,2.7C68-18.1,65.2-10.8,58-4C54.6-2.8,50.9-2.1,46.9-2.1
			C47-2.1,46.9-2.1,46.9-2.1z M73.3-15c1.1-2.8,1.9-5.7,2.5-8.8c0.6,0.4,1.3,0.8,1.9,1.2C76.5-19.8,75-17.3,73.3-15z"/>
	</g>
	<g id="Regular-S" transform="matrix(1 0 0 1 1403.58 696)">
		<path d="M46.5-74.7c-6.3,0-12.3,1.5-17.7,4.2c-4.3,2.1-8.1,5-11.3,8.5C13-57.1,9.7-51.1,8.1-44.4c-0.7,2.9-1.1,6-1.1,9.1
			c0,12.1,5.4,22.9,14,30.1c3.6,3.1,7.8,5.5,12.4,7.1c4.1,1.4,8.4,2.2,13,2.2c21.8,0,39.4-17.6,39.4-39.4S68.2-74.7,46.5-74.7z
			 M35.5-3.7c-2.4-0.8-4.7-2-6.9-3.3c1.9-1.4,3.6-2.8,5.1-4.1l0.1-0.1c4.4-3.9,7.5-7.5,9.7-10.9c0.1-0.1,0.1-0.2,0.2-0.3
			c2.3-3.6,3.7-6.9,4.9-9.9c2.3,0,4.8,0.1,7.6,0.6c-1,7.8-6.3,21.3-19.7,28.5C36.2-3.5,35.8-3.6,35.5-3.7z M47.7-38.4
			c-1.9-1.9-4-3.9-6-6.7c9-3.5,24.6-3.4,38.1,6.6c0.1,1.1,0.2,2.1,0.2,3.2c0,2.3-0.2,4.5-0.7,6.7c-1.8-1.2-3.5-2.2-5.2-3.1
			c-0.1-0.1-0.2-0.1-0.3-0.1c-5.2-2.8-9.7-4.4-13.6-5.3c-0.1,0-0.2-0.1-0.4-0.1C55-38.3,51.1-38.4,47.7-38.4z M71.5-57.3
			c2.7,3,4.8,6.6,6.3,10.5c-6.9-3.9-13.6-5.4-18.5-6c-7.6-0.9-15,0-20.8,2.6c-1-1.9-2-4.2-2.9-6.7C45-61.6,58.7-63.1,71.5-57.3z
			 M56.9-67c-8.5-0.5-16.7,1.2-23.1,4.2c-0.3-1-0.5-2-0.7-3.1c4.2-1.9,8.7-2.8,13.4-2.8C50.1-68.7,53.7-68.1,56.9-67z M27.6-62.8
			c0.4,1.9,0.9,3.6,1.4,5.2c0,0.1,0,0.2,0.1,0.3c1.6,5.2,3.5,9.2,5.5,12.5v0.1c0,0.1,0.1,0.1,0.1,0.1c2.7,4.5,5.7,7.5,8.2,10.1
			c-0.8,2.1-1.7,4.3-3,6.6c-8.5-5-16.6-15.5-18.4-29.6c0.1-0.1,0.2-0.2,0.3-0.3C23.6-59.8,25.6-61.4,27.6-62.8z M16.8-50.6
			C20.2-37.1,28.6-27.9,36.7-23c-1.4,1.8-3,3.6-5.1,5.6C24-23,17.9-28.2,13.5-40.5c0.1-0.9,0.3-1.7,0.5-2.5
			C14.6-45.6,15.6-48.2,16.8-50.6z M14.6-25.4c3.7,5.1,8,8.7,12.4,12c-1,0.8-2.1,1.7-3.3,2.5C19.4-14.9,16.3-19.9,14.6-25.4z
			 M45.1-1.9C55.9-10.3,60.7-22.5,62-30.4c2.2,0.7,4.5,1.6,7.1,2.9C67.5-18,64.6-10.6,57-3.5c-3.3,1.1-6.8,1.7-10.5,1.7
			C46-1.8,45.6-1.9,45.1-1.9z M70.9-12.5c1.7-3.7,2.9-7.6,3.7-11.9c0.9,0.6,1.8,1.1,2.8,1.8C75.9-18.9,73.7-15.5,70.9-12.5z"/>
	</g>
	<g id="Light-S" transform="matrix(1 0 0 1 1107.6 696)">
		<path d="M45-73.9c-6.2,0-12.1,1.5-17.3,4.1c-4.2,2.1-8,5-11.1,8.4C12.2-56.6,9-50.7,7.4-44.1c-0.7,2.9-1,5.9-1,9
			c0,11.9,5.3,22.5,13.8,29.6c3.6,3,7.7,5.4,12.2,7c4,1.4,8.3,2.2,12.8,2.2c21.4,0,38.7-17.3,38.7-38.7S66.4-73.9,45-73.9z
			 M33.8-3.1c-2.8-1-5.5-2.3-7.9-4c2.3-1.7,4.4-3.3,6.2-4.9l0.1-0.1c9.3-8.2,12.3-15.3,14.4-20.9c2.6,0,5.3,0.1,8.5,0.6
			C54.3-24.6,48.8-10,34.4-2.9C34.3-3,34-3,33.8-3.1z M45.9-37.7c-2.1-2-4.4-4.3-6.6-7.5c9.1-3.9,25.5-4,39.5,7c0.1,1,0.1,2,0.1,3
			c0,2.7-0.3,5.3-0.9,7.8c-2.2-1.5-4.3-2.7-6.3-3.8c-0.1-0.1-0.2-0.1-0.4-0.2c-5-2.7-9.2-4.2-13-5.1c-0.2-0.1-0.3-0.1-0.5-0.1
			C53.2-37.7,49.3-37.7,45.9-37.7z M71.3-56.7c2.8,3.5,5,7.5,6.3,11.9c-7.5-4.7-14.8-6.5-20.1-7.1c-7.6-0.9-15,0.1-20.7,2.7
			c-1.2-2.2-2.3-4.7-3.3-7.7C43.3-61.9,57.9-63.4,71.3-56.7z M61.4-65c-10.8-2.1-21.3-0.3-29.2,3.6c-0.4-1.5-0.8-3.1-1.1-4.8
			c4.4-2,9.1-3,14-3C50.9-69.2,56.5-67.7,61.4-65z M26.7-63.9c0.5,2.3,1.1,4.5,1.7,6.5c0,0.1,0.1,0.2,0.1,0.3
			c1.6,5,3.4,8.9,5.3,12.1c0,0,0,0.1,0.1,0.1c0,0.1,0.1,0.1,0.1,0.2c2.8,4.5,5.7,7.5,8.2,10c-0.9,2.3-1.9,4.8-3.4,7.5
			c-8.8-5-17.5-16-19-30.8c0-0.1,0.1-0.1,0.1-0.2C22-60.4,24.3-62.3,26.7-63.9z M15.9-52.8c2.9,14.7,11.9,24.6,20.3,29.5
			c-1.5,2-3.4,4.2-5.8,6.4C22.7-22.6,16-28.1,11.5-41.5c0.1-0.5,0.2-1.1,0.3-1.6C12.7-46.5,14.1-49.8,15.9-52.8z M11.4-30.2
			c4.3,7.7,9.7,12.3,15.4,16.5c-1.4,1.2-3,2.4-4.8,3.6C16.2-15.5,12.5-22.6,11.4-30.2z M41.3-1.4c12.3-8.3,17.4-21.7,18.5-29.8
			c2.5,0.7,5.1,1.8,8.1,3.3C66.2-17.7,63.2-10,54.5-2.5c-3,0.9-6.2,1.4-9.5,1.4C43.7-1.2,42.5-1.3,41.3-1.4z M65.9-8.4
			c3.3-5.2,5.2-10.8,6.3-17.1c1.4,0.8,2.9,1.8,4.4,2.8C74.3-17.1,70.6-12.1,65.9-8.4z"/>
	</g>
	<g id="Thin-S" transform="matrix(1 0 0 1 811.867 696)">
		<path d="M44-72.9c-6.1,0-11.8,1.4-16.9,4c-4.1,2.1-7.8,4.8-10.8,8.2C12-56,8.9-50.3,7.3-43.9c-0.7,2.8-1,5.7-1,8.7
			c0,11.6,5.2,21.9,13.4,28.8c3.5,2.9,7.5,5.2,11.9,6.8c3.9,1.4,8.1,2.1,12.4,2.1c20.8,0,37.7-16.9,37.7-37.7S64.8-72.9,44-72.9z
			 M78.7-35.2c0,3.3-0.5,6.4-1.3,9.4c-15.7-10.9-25.2-11-32.8-11c-2.3-2.2-4.9-4.7-7.3-8.4c9.1-4.3,26.7-4.7,41.3,7.4
			C78.7-36.9,78.7-36.1,78.7-35.2z M32.6-2.4c-3.3-1.2-6.4-2.8-9.2-4.9C38.9-18,42.5-26.7,45.1-33.8c2.9,0,6,0.1,9.7,0.8
			c-0.5,7.9-6.2,23.7-22,30.7C32.7-2.3,32.6-2.4,32.6-2.4z M56.1-50.7c-7.6-0.9-14.9,0.2-20.4,2.9c-1.4-2.4-2.7-5.4-3.8-8.9
			c10.1-5.4,25.9-7.1,40,0.8c3,4,5.1,8.7,6.2,13.8C70-47.9,61.8-50,56.1-50.7z M66.5-61.6c-12.9-4.6-26.3-2.7-35.5,2
			c-0.6-2.1-1.2-4.5-1.7-7.1C33.9-68.8,38.8-70,44-70C52.6-69.9,60.4-66.7,66.5-61.6z M26.6-65.2c3.7,18.4,10.3,25,15.7,30.3
			c-1,2.6-2.1,5.4-3.9,8.5C29.1-31.3,19.8-43,18.7-58.9C21-61.3,23.6-63.5,26.6-65.2z M15.9-55.5C18-39.3,27.8-28.6,36.6-23.8
			c-1.7,2.4-3.9,4.9-6.8,7.5c-8.2-6-15.2-11.6-19.7-26.5c0-0.2,0.1-0.3,0.1-0.5C11.3-47.6,13.2-51.8,15.9-55.5z M9.3-35.2
			c0-0.3,0-0.6,0-1C14-24.8,20.6-19.5,27.5-14.4c-1.9,1.6-4.1,3.3-6.7,5C13.5-15.9,9.3-25.3,9.3-35.2z M37.2-1.1
			c14.3-8,19.8-23,20.6-31.2c2.8,0.8,5.9,2,9.5,3.8c-1.8,11-5,19.1-15,27.1c-2.6,0.6-5.4,1-8.2,1C41.7-0.5,39.4-0.7,37.2-1.1z
			 M59.6-4.1c6.3-6.8,8.9-14.1,10.4-22.8c2,1.2,4.2,2.6,6.5,4.2C73.3-14.7,67.3-8,59.6-4.1z"/>
	</g>
	<g id="Ultralight-S" transform="matrix(1 0 0 1 515.644 696)">
		<path d="M44.1-72.4c-6,0-11.7,1.4-16.7,3.9c-4,2-7.7,4.8-10.7,8.1c-4.2,4.6-7.3,10.3-8.8,16.6c-0.7,2.8-1,5.7-1,8.6
			c0,11.4,5.1,21.6,13.2,28.4c3.4,2.9,7.4,5.2,11.7,6.7c3.8,1.3,8,2.1,12.3,2.1c20.5,0,37.2-16.7,37.2-37.2S64.7-72.4,44.1-72.4z
			 M78.9-40.4C64.7-51.5,46.4-52.6,35.7-47c-1.5-2.6-2.9-5.7-4.2-9.6c10.3-5.7,26.9-7.5,41.4,1.3C76-51,78.1-45.9,78.9-40.4z
			 M69.7-59.3c-13.9-6.4-28.9-4.5-38.7,0.8c-0.7-2.5-1.4-5.3-2-8.4c4.7-2.3,9.8-3.4,15.1-3.4C54.2-70.4,63.3-66.1,69.7-59.3z
			 M27.2-66C30.8-46.9,37.5-40.3,43-35c-1,2.8-2.2,5.8-4.3,9.2c-9.6-4.9-19.4-16.9-20.2-33.5C21-62,23.9-64.2,27.2-66z M32.4-1.9
			c-3.6-1.3-6.9-3.1-10-5.5c16.2-11,19.7-19.8,22.3-26.9c3,0,6.4,0,10.4,0.9C54.9-25.6,49.1-8.9,32.4-1.9z M37.6-24.1
			c-1.8,2.6-4.1,5.3-7.4,8.2c-8.5-6.2-15.7-11.8-20.3-27.6c1.2-5,3.5-9.6,6.7-13.6C18.2-40,28.5-28.8,37.6-24.1z M8.9-35.2
			c0-1.4,0.1-2.8,0.3-4.2c4.7,13.6,11.9,19.2,19.5,24.8c-2.2,1.9-4.8,3.8-7.8,5.8C13.3-15.4,8.9-25,8.9-35.2z M35.3-1.1
			C51-8.8,56.7-24.9,57.2-33c3,0.8,6.4,2.1,10.3,4.1C65.7-17.4,62.4-9,51.5-0.8C49.1-0.3,46.6,0,44.1,0C41.1,0.1,38.2-0.3,35.3-1.1z
			 M56.3-2.1c8.3-7.6,11.4-15.7,13.1-25.7c2.4,1.4,5,3,7.7,5C73.5-13.3,65.9-5.7,56.3-2.1z M77.8-24.8
			C61.7-36.3,52.2-36.3,44.6-36.3l0,0l0,0c-2.4-2.3-5.2-5-7.7-8.9c9.1-4.6,27.5-5.2,42.4,7.7c0.1,0.8,0.1,1.6,0.1,2.4
			C79.3-31.6,78.8-28.1,77.8-24.8z"/>
	</g>
</g>
</svg>
